<?xml version="1.0" encoding="UTF-8" standalone="no"?>
<svg
   xmlns:dc="http://purl.org/dc/elements/1.1/"
   xmlns:cc="http://creativecommons.org/ns#"
   xmlns:rdf="http://www.w3.org/1999/02/22-rdf-syntax-ns#"
   xmlns:svg="http://www.w3.org/2000/svg"
   xmlns="http://www.w3.org/2000/svg"
   xmlns:sodipodi="http://sodipodi.sourceforge.net/DTD/sodipodi-0.dtd"
   xmlns:inkscape="http://www.inkscape.org/namespaces/inkscape"
   version="1.1"
   id="svg2"
   xml:space="preserve"
   width="1053.2267"
   height="550.81335"
   viewBox="0 0 1053.2267 550.81335"
   sodipodi:docname="18764668.eps"><metadata
     id="metadata8"><rdf:RDF><cc:Work
         rdf:about=""><dc:format>image/svg+xml</dc:format><dc:type
           rdf:resource="http://purl.org/dc/dcmitype/StillImage" /></cc:Work></rdf:RDF></metadata><defs
     id="defs6"><clipPath
       clipPathUnits="userSpaceOnUse"
       id="clipPath278"><path
         d="m 3412.04,2919.11 c 0,-97.7 -79.2,-176.91 -176.9,-176.91 -97.71,0 -176.91,79.21 -176.91,176.91 0,97.71 79.2,176.91 176.91,176.91 97.7,0 176.9,-79.2 176.9,-176.91 z"
         id="path276" /></clipPath><linearGradient
       x1="0"
       y1="0"
       x2="1"
       y2="0"
       gradientUnits="userSpaceOnUse"
       gradientTransform="matrix(353.746,-298.772,-298.772,-353.746,3069.42,3059.07)"
       spreadMethod="pad"
       id="linearGradient294"><stop
         style="stop-opacity:1;stop-color:#f9d76c"
         offset="0"
         id="stop280" /><stop
         style="stop-opacity:1;stop-color:#f9d76c"
         offset="0.0011048"
         id="stop282" /><stop
         style="stop-opacity:1;stop-color:#f9a837"
         offset="0.209357"
         id="stop284" /><stop
         style="stop-opacity:1;stop-color:#f03d74"
         offset="0.37646"
         id="stop286" /><stop
         style="stop-opacity:1;stop-color:#e62299"
         offset="0.523815"
         id="stop288" /><stop
         style="stop-opacity:1;stop-color:#6f3ea2"
         offset="0.739443"
         id="stop290" /><stop
         style="stop-opacity:1;stop-color:#4850ab"
         offset="1"
         id="stop292" /></linearGradient><clipPath
       clipPathUnits="userSpaceOnUse"
       id="clipPath336"><path
         d="m 2687.78,3033.46 c -11.45,0 -20.74,-9.29 -20.74,-20.74 0,-11.46 9.29,-20.75 20.74,-20.75 11.46,0 20.74,9.29 20.74,20.75 0,11.45 -9.28,20.74 -20.74,20.74 z"
         id="path334" /></clipPath><linearGradient
       x1="0"
       y1="0"
       x2="1"
       y2="0"
       gradientUnits="userSpaceOnUse"
       gradientTransform="matrix(320.881,-307.137,-307.137,-320.881,2525.7,3167.86)"
       spreadMethod="pad"
       id="linearGradient352"><stop
         style="stop-opacity:1;stop-color:#f9d76c"
         offset="0"
         id="stop338" /><stop
         style="stop-opacity:1;stop-color:#f9d76c"
         offset="0.0011048"
         id="stop340" /><stop
         style="stop-opacity:1;stop-color:#f9a837"
         offset="0.209357"
         id="stop342" /><stop
         style="stop-opacity:1;stop-color:#f03d74"
         offset="0.37646"
         id="stop344" /><stop
         style="stop-opacity:1;stop-color:#e62299"
         offset="0.523815"
         id="stop346" /><stop
         style="stop-opacity:1;stop-color:#6f3ea2"
         offset="0.739443"
         id="stop348" /><stop
         style="stop-opacity:1;stop-color:#4850ab"
         offset="1"
         id="stop350" /></linearGradient><clipPath
       clipPathUnits="userSpaceOnUse"
       id="clipPath362"><path
         d="m 2595.57,2863.91 c -30.78,0 -55.82,25.04 -55.82,55.81 0,30.78 25.04,55.82 55.82,55.82 30.77,0 55.81,-25.04 55.81,-55.82 0,-30.77 -25.04,-55.81 -55.81,-55.81 z m 0,142.95 c -48.05,0 -87.14,-39.09 -87.14,-87.14 0,-48.04 39.09,-87.13 87.14,-87.13 48.04,0 87.13,39.09 87.13,87.13 0,48.05 -39.09,87.14 -87.13,87.14 z"
         id="path360" /></clipPath><linearGradient
       x1="0"
       y1="0"
       x2="1"
       y2="0"
       gradientUnits="userSpaceOnUse"
       gradientTransform="matrix(320.881,-307.137,-307.137,-320.881,2435.16,3073.26)"
       spreadMethod="pad"
       id="linearGradient378"><stop
         style="stop-opacity:1;stop-color:#f9d76c"
         offset="0"
         id="stop364" /><stop
         style="stop-opacity:1;stop-color:#f9d76c"
         offset="0.0011048"
         id="stop366" /><stop
         style="stop-opacity:1;stop-color:#f9a837"
         offset="0.209357"
         id="stop368" /><stop
         style="stop-opacity:1;stop-color:#f03d74"
         offset="0.37646"
         id="stop370" /><stop
         style="stop-opacity:1;stop-color:#e62299"
         offset="0.523815"
         id="stop372" /><stop
         style="stop-opacity:1;stop-color:#6f3ea2"
         offset="0.739443"
         id="stop374" /><stop
         style="stop-opacity:1;stop-color:#4850ab"
         offset="1"
         id="stop376" /></linearGradient><clipPath
       clipPathUnits="userSpaceOnUse"
       id="clipPath388"><path
         d="m 2523.48,3063.34 c -40.25,0 -72.99,-32.74 -72.99,-72.99 v -141.26 c 0,-40.25 32.74,-72.99 72.99,-72.99 h 141.26 c 40.25,0 72.99,32.74 72.99,72.99 v 141.26 c 0,40.25 -32.74,72.99 -72.99,72.99 z m 141.26,-320.53 h -141.26 c -58.6,0 -106.27,47.68 -106.27,106.28 v 141.26 c 0,58.61 47.67,106.28 106.27,106.28 h 141.26 c 58.6,0 106.28,-47.67 106.28,-106.28 v -141.26 c 0,-58.6 -47.68,-106.28 -106.28,-106.28 z"
         id="path386" /></clipPath><linearGradient
       x1="0"
       y1="0"
       x2="1"
       y2="0"
       gradientUnits="userSpaceOnUse"
       gradientTransform="matrix(320.879,-307.135,-307.135,-320.879,2434.46,3072.54)"
       spreadMethod="pad"
       id="linearGradient404"><stop
         style="stop-opacity:1;stop-color:#f9d76c"
         offset="0"
         id="stop390" /><stop
         style="stop-opacity:1;stop-color:#f9d76c"
         offset="0.0011048"
         id="stop392" /><stop
         style="stop-opacity:1;stop-color:#f9a837"
         offset="0.209357"
         id="stop394" /><stop
         style="stop-opacity:1;stop-color:#f03d74"
         offset="0.37646"
         id="stop396" /><stop
         style="stop-opacity:1;stop-color:#e62299"
         offset="0.523815"
         id="stop398" /><stop
         style="stop-opacity:1;stop-color:#6f3ea2"
         offset="0.739443"
         id="stop400" /><stop
         style="stop-opacity:1;stop-color:#4850ab"
         offset="1"
         id="stop402" /></linearGradient></defs><sodipodi:namedview
     pagecolor="#ffffff"
     bordercolor="#666666"
     borderopacity="1"
     objecttolerance="10"
     gridtolerance="10"
     guidetolerance="10"
     inkscape:pageopacity="0"
     inkscape:pageshadow="2"
     inkscape:window-width="640"
     inkscape:window-height="480"
     id="namedview4" /><g
     id="g10"
     inkscape:groupmode="layer"
     inkscape:label="ink_ext_XXXXXX"
     transform="matrix(1.3333333,0,0,-1.3333333,0,550.81333)"><g
       id="g12"
       transform="scale(0.1)"><path
         d="m 4780.55,3301.14 h -206.73 c -13.04,0 -23.66,10.61 -23.66,23.66 0,70.04 56.98,127.02 127.02,127.02 70.04,0 127.02,-56.98 127.02,-127.02 0,-13.05 -10.61,-23.66 -23.65,-23.66 z m -178.71,252.25 c 0,41.54 33.8,75.33 75.34,75.33 41.54,0 75.34,-33.79 75.34,-75.33 0,-41.54 -33.8,-75.34 -75.34,-75.34 -41.54,0 -75.34,33.8 -75.34,75.34 z m 130.02,-85.46 c 28.14,18.07 46.89,49.59 46.89,85.46 0,56 -45.56,101.56 -101.57,101.56 -56,0 -101.57,-45.56 -101.57,-101.56 0,-35.87 18.74,-67.39 46.89,-85.46 -57.56,-22.07 -98.57,-77.89 -98.57,-143.13 0,-27.51 22.38,-49.89 49.89,-49.89 h 206.73 c 27.5,0 49.88,22.38 49.88,49.89 0,65.24 -41,121.06 -98.57,143.13"
         style="fill:#040606;fill-opacity:1;fill-rule:nonzero;stroke:none"
         id="path14" /><path
         d="m 4754.7,2753.33 h -155.04 c -16.88,0 -30.61,13.74 -30.61,30.62 v 27.52 h 216.27 v -27.52 c 0,-16.88 -13.73,-30.62 -30.62,-30.62 z m -155.04,331.56 h 155.04 c 16.89,0 30.62,-13.73 30.62,-30.61 V 2837.7 h -216.27 v 216.58 c 0,16.88 13.73,30.61 30.61,30.61 z m 155.04,26.23 h -155.04 c -31.35,0 -56.84,-25.5 -56.84,-56.84 v -270.33 c 0,-31.35 25.49,-56.84 56.84,-56.84 h 155.04 c 31.35,0 56.85,25.49 56.85,56.84 v 270.33 c 0,31.34 -25.5,56.84 -56.85,56.84"
         style="fill:#040606;fill-opacity:1;fill-rule:nonzero;stroke:none"
         id="path16" /><path
         d="m 4673.6,3047.16 c 5.79,0 10.49,4.69 10.49,10.49 0,5.79 -4.7,10.49 -10.49,10.49 -5.79,0 -10.49,-4.7 -10.49,-10.49 0,-5.8 4.7,-10.49 10.49,-10.49"
         style="fill:#040606;fill-opacity:1;fill-rule:nonzero;stroke:none"
         id="path18" /><path
         d="m 4673.6,2795.16 c -5.79,0 -10.49,-4.7 -10.49,-10.49 0,-5.8 4.7,-10.49 10.49,-10.49 5.79,0 10.49,4.69 10.49,10.49 0,5.79 -4.7,10.49 -10.49,10.49"
         style="fill:#040606;fill-opacity:1;fill-rule:nonzero;stroke:none"
         id="path20" /><path
         d="m 4803.84,2209.18 h -253.32 v 150.68 h 253.32 z m -153.21,316.16 c 6.7,7.67 16.37,12.07 26.55,12.07 10.18,0 19.85,-4.4 26.55,-12.07 l 121.51,-139.25 h -296.13 z m 213.34,-143.75 -140.47,161 c -11.68,13.37 -28.56,21.05 -46.32,21.05 -17.75,0 -34.64,-7.68 -46.32,-21.05 l -140.47,-161 c -3.37,-3.87 -4.19,-9.37 -2.05,-14.04 2.12,-4.69 6.79,-7.69 11.94,-7.69 h 24.01 v -163.8 c 0,-7.24 5.87,-13.11 13.12,-13.11 h 279.55 c 7.24,0 13.11,5.87 13.11,13.11 v 163.8 h 24.02 c 5.14,0 9.81,3 11.93,7.69 2.14,4.67 1.33,10.17 -2.05,14.04"
         style="fill:#040606;fill-opacity:1;fill-rule:nonzero;stroke:none"
         id="path22" /><path
         d="m 4840.97,1733.07 c 0,-15.79 -12.84,-28.64 -28.63,-28.64 h -270.31 c -15.8,0 -28.64,12.85 -28.64,28.64 v 188.82 c 0,3.84 0.77,7.5 2.15,10.85 l 114.34,-129.73 c 11.96,-13.57 29.21,-21.37 47.3,-21.37 18.1,0 35.34,7.8 47.31,21.37 l 114.33,129.73 c 1.38,-3.35 2.15,-7.01 2.15,-10.85 z m -28.63,217.45 c 2.24,0 4.41,-0.28 6.51,-0.77 l -114.03,-129.4 c -6.99,-7.93 -17.07,-12.48 -27.64,-12.48 -10.57,0 -20.64,4.55 -27.63,12.48 l -114.04,129.4 c 2.1,0.49 4.28,0.77 6.52,0.77 z m 0,26.23 h -270.31 c -30.26,0 -54.87,-24.61 -54.87,-54.86 v -188.82 c 0,-30.26 24.61,-54.86 54.87,-54.86 h 270.31 c 30.25,0 54.86,24.6 54.86,54.86 v 188.82 c 0,30.25 -24.61,54.86 -54.86,54.86"
         style="fill:#040606;fill-opacity:1;fill-rule:nonzero;stroke:none"
         id="path24" /><path
         d="m 4802.89,1250.67 -139.46,-14.8 c -3.17,-0.33 -6.11,-1.81 -8.27,-4.17 l -96.85,-105.44 c -2.72,-0.67 -4.9,0.38 -5.82,0.95 -1.1,0.67 -3.68,2.68 -3.68,6.58 l 0.01,309.62 c 0,0.32 0,1.28 1.14,1.86 0.38,0.18 0.71,0.25 0.99,0.25 0.61,0 1.02,-0.3 1.19,-0.42 l 250.23,-182.34 c 3.15,-2.31 3.26,-5.56 3.15,-6.86 -0.09,-1.07 -0.52,-3.45 -2.63,-5.23 z m 14.93,33.28 -250.24,182.34 c -8.65,6.31 -19.96,7.21 -29.51,2.36 -9.54,-4.87 -15.47,-14.54 -15.47,-25.24 l -0.01,-309.62 c 0,-11.9 6.06,-22.72 16.2,-28.94 5.46,-3.35 11.58,-5.04 17.73,-5.04 5.24,0 10.51,1.24 15.41,3.72 1.39,0.71 2.65,1.67 3.71,2.82 l 84.95,92.49 50.91,-100.1 c 2.31,-4.55 6.92,-7.17 11.7,-7.17 2,0 4.03,0.46 5.93,1.43 6.46,3.28 9.03,11.17 5.75,17.64 l -51.36,100.99 125.14,13.27 c 1.59,0.17 3.13,0.63 4.56,1.35 10.6,5.4 17.5,15.71 18.44,27.56 0.95,11.87 -4.22,23.14 -13.84,30.14"
         style="fill:#040606;fill-opacity:1;fill-rule:nonzero;stroke:none"
         id="path26" /><path
         d="m 4677.18,898.199 c -66.39,0 -120.4,-54.008 -120.4,-120.39 0,-51.77 79.56,-151.977 120.4,-197.918 40.83,45.941 120.39,146.148 120.39,197.918 0,66.382 -54,120.39 -120.39,120.39 z m 0,-350.949 v 0 c -3.65,0 -7.13,1.52 -9.61,4.199 -5.59,6.012 -137.01,148.36 -137.01,226.36 0,80.839 65.77,146.621 146.62,146.621 80.85,0 146.62,-65.782 146.62,-146.621 0,-78 -131.41,-220.348 -137.02,-226.36 -2.48,-2.679 -5.96,-4.199 -9.6,-4.199"
         style="fill:#040606;fill-opacity:1;fill-rule:nonzero;stroke:none"
         id="path28" /><path
         d="m 4677.18,824 c -21.93,0 -39.78,-17.859 -39.78,-39.789 0,-21.93 17.85,-39.781 39.78,-39.781 21.93,0 39.79,17.851 39.79,39.781 0,21.93 -17.86,39.789 -39.79,39.789 z m 0,-105.801 c -36.4,0 -66.01,29.61 -66.01,66.012 0,36.398 29.61,66.008 66.01,66.008 36.4,0 66.01,-29.61 66.01,-66.008 0,-36.402 -29.61,-66.012 -66.01,-66.012"
         style="fill:#040606;fill-opacity:1;fill-rule:nonzero;stroke:none"
         id="path30" /><path
         d="m 4732.22,35.7617 c 21.15,31.6289 34.92,81.8673 36.7,141.1483 h 71.48 C 4835.2,111.621 4791.61,57.0195 4732.22,35.7617 Z M 4513.96,176.91 h 71.48 c 1.78,-59.281 15.55,-109.5194 36.7,-141.1483 -59.38,21.2578 -102.98,75.8593 -108.18,141.1483 z m 108.18,167.36 c -21.15,-31.622 -34.92,-81.872 -36.7,-141.129 h -71.48 c 5.2,65.269 48.8,119.879 108.18,141.129 z m -10.46,-141.129 c 2.97,89.429 35.84,150.668 65.5,150.668 29.66,0 62.53,-61.239 65.49,-150.668 z m 65.5,-176.9222 c -29.66,0 -62.53,61.2421 -65.5,150.6912 h 130.99 C 4739.71,87.4609 4706.84,26.2188 4677.18,26.2188 Z M 4840.4,203.141 h -71.48 c -1.78,59.257 -15.55,109.507 -36.7,141.129 59.39,-21.25 102.98,-75.86 108.18,-141.129 z m -163.22,176.898 c -104.77,0 -190.02,-85.238 -190.02,-190.019 0,-104.7778 85.25,-190.0278125 190.02,-190.0278125 104.78,0 190.02,85.2500125 190.02,190.0278125 0,104.781 -85.24,190.019 -190.02,190.019"
         style="fill:#040606;fill-opacity:1;fill-rule:nonzero;stroke:none"
         id="path32" /><path
         d="m 5393.73,3566.3 c 0,-41.71 -33.81,-75.53 -75.52,-75.53 -41.72,0 -75.54,33.82 -75.54,75.53 0,41.72 33.82,75.54 75.54,75.54 41.71,0 75.52,-33.82 75.52,-75.54"
         style="fill:#040606;fill-opacity:1;fill-rule:nonzero;stroke:none"
         id="path34" /><path
         d="m 5318.21,3464.93 v 0 c -77.41,0 -140.14,-62.74 -140.14,-140.13 v 0 c 0,-20.31 16.46,-36.78 36.77,-36.78 h 206.73 c 20.31,0 36.77,16.47 36.77,36.78 v 0 c 0,77.39 -62.74,140.13 -140.13,140.13"
         style="fill:#040606;fill-opacity:1;fill-rule:nonzero;stroke:none"
         id="path36" /><path
         d="m 5318.21,3070.76 c 7.23,0 13.11,-5.87 13.11,-13.12 0,-7.24 -5.88,-13.11 -13.11,-13.11 -7.25,0 -13.12,5.87 -13.12,13.11 0,7.25 5.87,13.12 13.12,13.12 z m 121.25,-233.06 v 216.58 c 0,24.15 -19.58,43.73 -43.73,43.73 h -155.05 c -24.15,0 -43.72,-19.58 -43.72,-43.73 V 2837.7 h 242.5"
         style="fill:#040606;fill-opacity:1;fill-rule:nonzero;stroke:none"
         id="path38" /><path
         d="m 5318.21,2764.54 c -7.25,0 -13.12,5.87 -13.12,13.11 0,7.24 5.87,13.11 13.12,13.11 7.23,0 13.11,-5.87 13.11,-13.11 0,-7.24 -5.88,-13.11 -13.11,-13.11 z m -121.25,46.93 v -27.52 c 0,-24.15 19.57,-43.73 43.72,-43.73 h 155.05 c 24.15,0 43.73,19.58 43.73,43.73 v 27.52 h -242.5"
         style="fill:#040606;fill-opacity:1;fill-rule:nonzero;stroke:none"
         id="path40" /><path
         d="m 5281.77,2533.96 -125.3,-143.6 c -5.92,-6.79 -1.11,-17.39 7.9,-17.39 h 36.53 257.08 14.05 c 9.01,0 13.83,10.6 7.91,17.39 l -125.3,143.6 c -19.28,22.09 -53.6,22.09 -72.87,0"
         style="fill:#040606;fill-opacity:1;fill-rule:nonzero;stroke:none"
         id="path42" /><path
         d="m 5457.98,2346.6 v -140.04 c 0,-5.8 -4.7,-10.5 -10.5,-10.5 h -258.56 c -5.79,0 -10.49,4.7 -10.49,10.5 v 140.04 h 279.55"
         style="fill:#040606;fill-opacity:1;fill-rule:nonzero;stroke:none"
         id="path44" /><path
         d="m 5167.64,1959.85 122.94,-139.5 c 6.98,-7.93 17.05,-12.48 27.63,-12.48 10.56,0 20.63,4.55 27.62,12.48 l 120.81,137.07 c 1,1.14 2.18,2.01 3.43,2.71 -5.12,2.25 -10.77,3.51 -16.71,3.51 h -270.31 c -5.68,0 -11.1,-1.15 -16.04,-3.21 0.2,-0.2 0.44,-0.37 0.63,-0.58"
         style="fill:#040606;fill-opacity:1;fill-rule:nonzero;stroke:none"
         id="path46" /><path
         d="m 5488.69,1944.06 c -0.54,-1.41 -1.3,-2.78 -2.37,-3.98 l -120.81,-137.07 c -11.97,-13.58 -29.21,-21.37 -47.3,-21.37 -18.1,0 -35.35,7.79 -47.31,21.37 l -122.94,139.49 c -0.25,0.29 -0.43,0.6 -0.64,0.9 -3.8,-6.3 -6.03,-13.63 -6.03,-21.52 v -188.81 c 0,-23.06 18.7,-41.76 41.76,-41.76 h 270.31 c 23.06,0 41.75,18.7 41.75,41.76 v 188.81 c 0,8.16 -2.37,15.75 -6.42,22.18"
         style="fill:#040606;fill-opacity:1;fill-rule:nonzero;stroke:none"
         id="path48" /><path
         d="m 5451.12,1279.9 -250.24,182.35 c -10.04,7.31 -24.15,0.15 -24.15,-12.29 l -0.01,-309.62 c 0,-15.54 16.42,-25.62 30.29,-18.57 l 88.26,96.1 57.25,-112.57 c 2.32,-4.56 6.93,-7.17 11.7,-7.17 2,0 4.04,0.46 5.94,1.42 6.45,3.28 9.02,11.19 5.74,17.64 l -57.72,113.51 130.11,13.79 c 13.86,7.06 15.4,26.25 2.83,35.41"
         style="fill:#040606;fill-opacity:1;fill-rule:nonzero;stroke:none"
         id="path50" /><path
         d="m 5318.2,821.422 c -21.94,0 -39.78,-17.852 -39.78,-39.793 0,-21.93 17.84,-39.777 39.78,-39.777 21.94,0 39.79,17.847 39.79,39.777 0,21.941 -17.85,39.793 -39.79,39.793"
         style="fill:#040606;fill-opacity:1;fill-rule:nonzero;stroke:none"
         id="path52" /><path
         d="m 5318.2,715.621 c -36.39,0 -66.01,29.621 -66.01,66.008 0,36.402 29.62,66.012 66.01,66.012 36.4,0 66.01,-29.61 66.01,-66.012 0,-36.387 -29.61,-66.008 -66.01,-66.008 z m 0.01,193.109 c -73.74,0 -133.52,-59.769 -133.52,-133.5 0,-62.871 97.07,-176.609 125.67,-208.761 4.18,-4.699 11.5,-4.699 15.69,0 28.6,32.152 125.66,145.89 125.66,208.761 0,73.731 -59.77,133.5 -133.5,133.5"
         style="fill:#040606;fill-opacity:1;fill-rule:nonzero;stroke:none"
         id="path54" /><path
         d="m 5252.71,176.91 c 2.97,-89.4491 35.84,-150.6912 65.5,-150.6912 29.65,0 62.53,61.2421 65.49,150.6912 h -130.99"
         style="fill:#040606;fill-opacity:1;fill-rule:nonzero;stroke:none"
         id="path56" /><path
         d="m 5318.21,353.809 c -29.66,0 -62.53,-61.239 -65.5,-150.668 h 130.99 c -2.96,89.429 -35.84,150.668 -65.49,150.668"
         style="fill:#040606;fill-opacity:1;fill-rule:nonzero;stroke:none"
         id="path58" /><path
         d="m 5409.95,203.141 h 84.62 c -5.72,78.007 -62.01,141.941 -136.25,159.168 29.45,-28.028 49.46,-86.899 51.63,-159.168"
         style="fill:#040606;fill-opacity:1;fill-rule:nonzero;stroke:none"
         id="path60" /><path
         d="m 5409.95,176.91 c -2.17,-72.289 -22.18,-131.1483 -51.63,-159.1678 74.24,17.2187 130.53,81.1484 136.25,159.1678 h -84.62"
         style="fill:#040606;fill-opacity:1;fill-rule:nonzero;stroke:none"
         id="path62" /><path
         d="m 5226.47,176.91 h -84.64 c 5.72,-78.0194 62.02,-141.9491 136.26,-159.1678 -29.44,28.0195 -49.45,86.8788 -51.62,159.1678"
         style="fill:#040606;fill-opacity:1;fill-rule:nonzero;stroke:none"
         id="path64" /><path
         d="m 5226.47,203.141 c 2.17,72.269 22.18,131.14 51.62,159.168 -74.24,-17.227 -130.54,-81.161 -136.26,-159.168 h 84.64"
         style="fill:#040606;fill-opacity:1;fill-rule:nonzero;stroke:none"
         id="path66" /><path
         d="m 6136.14,3464.93 c 0,-97.7 -79.21,-176.91 -176.92,-176.91 -97.69,0 -176.9,79.21 -176.9,176.91 0,97.7 79.21,176.91 176.9,176.91 97.71,0 176.92,-79.21 176.92,-176.91"
         style="fill:#040606;fill-opacity:1;fill-rule:nonzero;stroke:none"
         id="path68" /><path
         d="m 6009.62,3548.3 c 0,-27.84 -22.57,-50.39 -50.4,-50.39 -27.82,0 -50.39,22.55 -50.39,50.39 0,27.83 22.57,50.39 50.39,50.39 27.83,0 50.4,-22.56 50.4,-50.39"
         style="fill:#ffffff;fill-opacity:1;fill-rule:nonzero;stroke:none"
         id="path70" /><path
         d="m 5959.22,3480.67 v 0 c -51.63,0 -93.48,-41.86 -93.48,-93.49 v 0 c 0,-13.55 10.98,-24.53 24.53,-24.53 h 137.92 c 13.54,0 24.53,10.98 24.53,24.53 v 0 c 0,51.63 -41.86,93.49 -93.5,93.49"
         style="fill:#ffffff;fill-opacity:1;fill-rule:nonzero;stroke:none"
         id="path72" /><path
         d="m 6136.14,2919.11 c 0,-97.7 -79.21,-176.91 -176.92,-176.91 -97.69,0 -176.9,79.21 -176.9,176.91 0,97.71 79.21,176.91 176.9,176.91 97.71,0 176.92,-79.2 176.92,-176.91"
         style="fill:#040606;fill-opacity:1;fill-rule:nonzero;stroke:none"
         id="path74" /><path
         d="m 5959.22,3019.16 c 4.79,0 8.65,-3.87 8.65,-8.65 0,-4.78 -3.86,-8.65 -8.65,-8.65 -4.77,0 -8.64,3.87 -8.64,8.65 0,4.78 3.87,8.65 8.64,8.65 z m 80,-153.76 v 142.88 c 0,15.94 -12.92,28.86 -28.86,28.86 h -102.28 c -15.93,0 -28.85,-12.92 -28.85,-28.86 V 2865.4 h 159.99"
         style="fill:#ffffff;fill-opacity:1;fill-rule:nonzero;stroke:none"
         id="path76" /><path
         d="m 5959.22,2817.14 c -4.77,0 -8.64,3.87 -8.64,8.65 0,4.78 3.87,8.65 8.64,8.65 4.79,0 8.65,-3.87 8.65,-8.65 0,-4.78 -3.86,-8.65 -8.65,-8.65 z m -79.99,30.96 v -18.16 c 0,-15.93 12.92,-28.85 28.85,-28.85 h 102.28 c 15.94,0 28.86,12.92 28.86,28.85 v 18.16 h -159.99"
         style="fill:#ffffff;fill-opacity:1;fill-rule:nonzero;stroke:none"
         id="path78" /><path
         d="m 6136.14,2373.29 c 0,-97.7 -79.21,-176.91 -176.92,-176.91 -97.69,0 -176.9,79.21 -176.9,176.91 0,97.71 79.21,176.91 176.9,176.91 97.71,0 176.92,-79.2 176.92,-176.91"
         style="fill:#040606;fill-opacity:1;fill-rule:nonzero;stroke:none"
         id="path80" /><path
         d="m 5934.96,2496.02 -83.43,-95.63 c -3.95,-4.51 -0.74,-11.57 5.26,-11.57 h 24.33 171.19 9.35 c 6,0 9.21,7.06 5.27,11.57 l -83.44,95.63 c -12.83,14.71 -35.69,14.71 -48.53,0"
         style="fill:#ffffff;fill-opacity:1;fill-rule:nonzero;stroke:none"
         id="path82" /><path
         d="M 6052.31,2371.26 V 2278 c 0,-3.86 -3.14,-6.99 -6.99,-6.99 h -172.18 c -3.86,0 -6.99,3.13 -6.99,6.99 v 93.26 h 186.16"
         style="fill:#ffffff;fill-opacity:1;fill-rule:nonzero;stroke:none"
         id="path84" /><path
         d="m 6136.14,1827.47 c 0,-97.7 -79.21,-176.9 -176.92,-176.9 -97.69,0 -176.9,79.2 -176.9,176.9 0,97.71 79.21,176.92 176.9,176.92 97.71,0 176.92,-79.21 176.92,-176.92"
         style="fill:#040606;fill-opacity:1;fill-rule:nonzero;stroke:none"
         id="path86" /><path
         d="m 5858.78,1915.78 82.01,-93.06 c 4.66,-5.29 11.38,-8.32 18.44,-8.32 7.05,0 13.77,3.03 18.43,8.32 l 80.6,91.45 c 0.66,0.75 1.45,1.34 2.28,1.81 -3.42,1.49 -7.18,2.33 -11.15,2.33 h -180.32 c -3.8,0 -7.42,-0.76 -10.71,-2.14 0.14,-0.13 0.29,-0.24 0.42,-0.39"
         style="fill:#ffffff;fill-opacity:1;fill-rule:nonzero;stroke:none"
         id="path88" /><path
         d="m 6072.96,1905.26 c -0.36,-0.95 -0.87,-1.86 -1.57,-2.66 l -80.61,-91.45 c -7.97,-9.06 -19.48,-14.25 -31.55,-14.25 -12.08,0 -23.57,5.19 -31.56,14.25 l -82.02,93.06 c -0.17,0.19 -0.29,0.4 -0.43,0.6 -2.53,-4.19 -4.02,-9.09 -4.02,-14.35 v -125.97 c 0,-15.38 12.48,-27.85 27.87,-27.85 h 180.32 c 15.39,0 27.86,12.47 27.86,27.85 v 125.97 c 0,5.44 -1.59,10.51 -4.29,14.8"
         style="fill:#ffffff;fill-opacity:1;fill-rule:nonzero;stroke:none"
         id="path90" /><path
         d="m 6136.14,1281.66 c 0,-97.7 -79.21,-176.91 -176.92,-176.91 -97.69,0 -176.9,79.21 -176.9,176.91 0,97.7 79.21,176.91 176.9,176.91 97.71,0 176.92,-79.21 176.92,-176.91"
         style="fill:#040606;fill-opacity:1;fill-rule:nonzero;stroke:none"
         id="path92" /><path
         d="m 6063.78,1280.56 -157.34,114.65 c -6.31,4.6 -15.19,0.09 -15.19,-7.73 v -194.67 c 0,-9.78 10.33,-16.12 19.04,-11.68 l 55.49,60.43 36.01,-70.8 c 1.46,-2.86 4.35,-4.5 7.35,-4.5 1.26,0 2.53,0.29 3.73,0.9 4.07,2.06 5.68,7.02 3.62,11.08 l -36.3,71.37 81.82,8.68 c 8.71,4.44 9.67,16.51 1.77,22.27"
         style="fill:#ffffff;fill-opacity:1;fill-rule:nonzero;stroke:none"
         id="path94" /><path
         d="m 6136.14,735.84 c 0,-97.699 -79.21,-176.91 -176.92,-176.91 -97.69,0 -176.9,79.211 -176.9,176.91 0,97.699 79.21,176.91 176.9,176.91 97.71,0 176.92,-79.211 176.92,-176.91"
         style="fill:#040606;fill-opacity:1;fill-rule:nonzero;stroke:none"
         id="path96" /><path
         d="m 5959.22,722.039 c -24.84,0 -45.06,20.211 -45.06,45.051 0,24.859 20.22,45.07 45.06,45.07 24.86,0 45.06,-20.211 45.06,-45.07 0,-24.84 -20.2,-45.051 -45.06,-45.051 z m 0,131.82 c -50.33,0 -91.13,-40.8 -91.13,-91.129 0,-42.921 66.26,-120.558 85.78,-142.5 2.86,-3.218 7.85,-3.218 10.7,0 19.54,21.942 85.79,99.579 85.79,142.5 0,50.329 -40.81,91.129 -91.14,91.129"
         style="fill:#ffffff;fill-opacity:1;fill-rule:nonzero;stroke:none"
         id="path98" /><path
         d="m 6136.14,190.02 c 0,-97.6997 -79.21,-176.9106 -176.92,-176.9106 -97.69,0 -176.9,79.2109 -176.9,176.9106 0,97.71 79.21,176.91 176.9,176.91 97.71,0 176.92,-79.2 176.92,-176.91"
         style="fill:#040606;fill-opacity:1;fill-rule:nonzero;stroke:none"
         id="path100" /><path
         d="m 5915.4,181.242 c 1.99,-59.844 23.98,-100.8318 43.82,-100.8318 19.86,0 41.85,40.9878 43.83,100.8318 h -87.65"
         style="fill:#ffffff;fill-opacity:1;fill-rule:nonzero;stroke:none"
         id="path102" /><path
         d="m 5959.22,299.621 c -19.84,0 -41.83,-40.98 -43.82,-100.832 h 87.65 c -1.98,59.852 -23.97,100.832 -43.83,100.832"
         style="fill:#ffffff;fill-opacity:1;fill-rule:nonzero;stroke:none"
         id="path104" /><path
         d="m 6020.62,198.789 h 56.63 c -3.83,52.223 -41.49,94.992 -91.18,106.52 19.71,-18.75 33.09,-58.149 34.55,-106.52"
         style="fill:#ffffff;fill-opacity:1;fill-rule:nonzero;stroke:none"
         id="path106" /><path
         d="m 6020.62,181.242 c -1.46,-48.371 -14.84,-87.7537 -34.55,-106.5037 49.69,11.5234 87.35,54.3007 91.18,106.5037 h -56.63"
         style="fill:#ffffff;fill-opacity:1;fill-rule:nonzero;stroke:none"
         id="path108" /><path
         d="m 5897.84,181.242 h -56.64 c 3.83,-52.203 41.5,-94.9803 91.19,-106.5037 -19.71,18.75 -33.1,58.1327 -34.55,106.5037"
         style="fill:#ffffff;fill-opacity:1;fill-rule:nonzero;stroke:none"
         id="path110" /><path
         d="m 5897.84,198.789 c 1.45,48.371 14.84,87.77 34.55,106.52 -49.69,-11.528 -87.36,-54.297 -91.19,-106.52 h 56.64"
         style="fill:#ffffff;fill-opacity:1;fill-rule:nonzero;stroke:none"
         id="path112" /><path
         d="m 7899.2,2373.29 c 0,-97.7 -79.21,-176.91 -176.9,-176.91 -97.71,0 -176.92,79.21 -176.92,176.91 0,97.71 79.21,176.91 176.92,176.91 97.69,0 176.9,-79.2 176.9,-176.91"
         style="fill:#040606;fill-opacity:1;fill-rule:nonzero;stroke:none"
         id="path114" /><path
         d="m 7820.04,2433.91 c -6.13,-2.77 -12.91,-4.45 -19.51,-5.56 3.14,0.52 7.75,6.2 9.59,8.5 2.82,3.51 5.16,7.5 6.48,11.81 0.16,0.34 0.29,0.76 -0.04,1.02 -0.43,0.17 -0.71,0.08 -1.04,-0.09 -7.38,-3.95 -15.01,-6.82 -23.13,-8.85 -0.68,-0.17 -1.18,0 -1.61,0.42 -0.66,0.76 -1.29,1.48 -2.02,2.07 -3.4,2.91 -7.07,5.18 -11.2,6.87 -5.43,2.21 -11.35,3.14 -17.19,2.76 -5.68,-0.37 -11.26,-1.97 -16.3,-4.6 -5.06,-2.64 -9.56,-6.31 -13.16,-10.75 -3.71,-4.58 -6.45,-9.99 -7.86,-15.73 -1.35,-5.54 -1.24,-11.02 -0.41,-16.61 0.13,-0.93 0.04,-1.06 -0.8,-0.93 -31.78,4.73 -58.12,16.09 -79.49,40.46 -0.93,1.06 -1.44,1.06 -2.2,-0.08 -9.36,-14.03 -4.81,-36.56 6.88,-47.63 1.56,-1.48 3.16,-2.95 4.88,-4.3 -0.63,-0.13 -8.41,0.72 -15.33,4.3 -0.94,0.59 -1.4,0.25 -1.49,-0.8 -0.08,-1.52 0.05,-2.91 0.26,-4.56 1.79,-14.21 11.64,-27.36 25.12,-32.49 1.6,-0.68 3.37,-1.27 5.1,-1.56 -3.08,-0.67 -6.24,-1.16 -15.05,-0.46 -1.09,0.21 -1.51,-0.34 -1.09,-1.39 6.62,-18.05 20.91,-23.42 31.61,-26.47 1.42,-0.26 2.86,-0.26 4.3,-0.59 -0.09,-0.13 -0.17,-0.13 -0.26,-0.25 -3.54,-5.42 -15.85,-9.45 -21.58,-11.45 -10.43,-3.64 -21.78,-5.28 -32.79,-4.19 -1.76,0.25 -2.13,0.24 -2.61,0 -0.49,-0.3 -0.06,-0.73 0.51,-1.18 2.23,-1.48 4.5,-2.78 6.82,-4.05 7,-3.71 14.29,-6.66 21.92,-8.77 39.38,-10.88 83.75,-2.88 113.33,26.5 23.22,23.08 31.35,54.9 31.35,86.76 0,1.24 1.48,1.93 2.36,2.59 6.04,4.54 10.92,9.97 15.42,16.04 1.01,1.36 1.02,2.57 1.02,3.07 0,0.09 0,0.17 0,0.17 0,0.51 -0.01,0.35 -0.79,0"
         style="fill:#ffffff;fill-opacity:1;fill-rule:nonzero;stroke:none"
         id="path116" /><path
         d="m 7899.2,2919.11 c 0,-97.7 -79.21,-176.91 -176.9,-176.91 -97.71,0 -176.92,79.21 -176.92,176.91 0,97.71 79.21,176.91 176.92,176.91 97.69,0 176.9,-79.2 176.9,-176.91"
         style="fill:#040606;fill-opacity:1;fill-rule:nonzero;stroke:none"
         id="path118" /><path
         d="m 7777.21,2986.04 c -6.72,0 -12.16,-5.45 -12.16,-12.16 0,-6.72 5.44,-12.16 12.16,-12.16 6.72,0 12.16,5.44 12.16,12.16 0,6.71 -5.44,12.16 -12.16,12.16"
         style="fill:#ffffff;fill-opacity:1;fill-rule:nonzero;stroke:none"
         id="path120" /><path
         d="m 7723.15,2886.64 c -18.05,0 -32.73,14.68 -32.73,32.72 0,18.04 14.68,32.72 32.73,32.72 18.04,0 32.71,-14.68 32.71,-32.72 0,-18.04 -14.67,-32.72 -32.71,-32.72 z m 0,83.8 c -28.17,0 -51.09,-22.91 -51.09,-51.08 0,-28.17 22.92,-51.08 51.09,-51.08 28.16,0 51.08,22.91 51.08,51.08 0,28.17 -22.92,51.08 -51.08,51.08"
         style="fill:#ffffff;fill-opacity:1;fill-rule:nonzero;stroke:none"
         id="path122" /><path
         d="m 7680.88,3003.56 c -23.59,0 -42.78,-19.19 -42.78,-42.79 v -82.82 c 0,-23.59 19.19,-42.79 42.78,-42.79 h 82.82 c 23.6,0 42.8,19.2 42.8,42.79 v 82.82 c 0,23.6 -19.2,42.79 -42.8,42.79 z m 82.82,-187.91 h -82.82 c -34.35,0 -62.3,27.95 -62.3,62.3 v 82.82 c 0,34.35 27.95,62.3 62.3,62.3 h 82.82 c 34.35,0 62.31,-27.95 62.31,-62.3 v -82.82 c 0,-34.35 -27.96,-62.3 -62.31,-62.3"
         style="fill:#ffffff;fill-opacity:1;fill-rule:nonzero;stroke:none"
         id="path124" /><path
         d="m 7899.2,3464.93 c 0,97.7 -79.21,176.91 -176.9,176.91 -97.71,0 -176.92,-79.21 -176.92,-176.91 0,-88.3 64.7,-161.48 149.27,-174.76 v 123.63 h -44.91 v 51.13 h 44.91 v 38.98 c 0,44.34 26.42,68.83 66.82,68.83 19.36,0 39.61,-3.46 39.61,-3.46 v -43.53 h -22.32 c -21.97,0 -28.82,-13.64 -28.82,-27.63 v -33.19 H 7799 l -7.84,-51.13 h -41.22 v -123.63 c 84.57,13.28 149.26,86.46 149.26,174.76"
         style="fill:#040606;fill-opacity:1;fill-rule:nonzero;stroke:none"
         id="path126" /><path
         d="m 7791.16,3413.8 7.84,51.13 h -49.06 v 33.19 c 0,13.99 6.85,27.63 28.82,27.63 h 22.32 v 43.53 c 0,0 -20.25,3.46 -39.61,3.46 -40.4,0 -66.82,-24.49 -66.82,-68.83 v -38.98 h -44.91 v -51.13 h 44.91 v -123.63 c 9.01,-1.41 18.24,-2.15 27.65,-2.15 9.4,0 18.63,0.74 27.64,2.15 v 123.63 h 41.22"
         style="fill:#ffffff;fill-opacity:1;fill-rule:nonzero;stroke:none"
         id="path128" /><path
         d="m 7899.2,1281.65 c 0,-97.69 -79.21,-176.9 -176.9,-176.9 -97.71,0 -176.92,79.21 -176.92,176.9 0,97.71 79.21,176.92 176.92,176.92 97.69,0 176.9,-79.21 176.9,-176.92"
         style="fill:#040606;fill-opacity:1;fill-rule:nonzero;stroke:none"
         id="path130" /><path
         d="m 7814.16,1302.04 c -1.81,-0.17 -3.63,-0.27 -5.45,-0.27 -19.94,-0.01 -38.53,10.05 -49.46,26.73 v -91.03 c 0,-37.15 -30.12,-67.28 -67.27,-67.28 -37.16,0 -67.29,30.13 -67.29,67.28 0,37.16 30.13,67.28 67.29,67.28 v 0 c 1.4,0 2.77,-0.13 4.16,-0.22 v -33.15 c -1.39,0.17 -2.75,0.42 -4.16,0.42 -18.97,0 -34.34,-15.37 -34.34,-34.34 0,-18.96 15.37,-34.33 34.34,-34.33 18.96,0 35.71,14.94 35.71,33.9 l 0.33,154.6 h 31.72 c 3,-28.43 25.93,-50.65 54.45,-52.74 v -36.85"
         style="fill:#ffffff;fill-opacity:1;fill-rule:nonzero;stroke:none"
         id="path132" /><path
         d="m 7722.29,2004.39 c -97.71,0 -176.91,-79.21 -176.91,-176.92 0,-71.96 43.05,-133.77 104.73,-161.4 -0.2,4.97 -0.42,9.94 -0.25,14.93 0.57,17.21 2.69,23.11 24.87,116.39 0.33,1.42 -0.03,2.6 -0.51,3.88 -5.31,14.33 -6.36,28.86 -1.72,43.6 10.04,31.8 46.11,34.24 52.42,7.99 3.87,-16.24 -6.4,-37.48 -14.29,-68.88 -6.53,-25.91 23.96,-44.33 50.04,-25.41 24.04,17.43 33.37,59.24 31.6,88.86 -3.51,59.08 -68.27,71.85 -109.38,52.83 -47.11,-21.79 -57.82,-80.2 -36.55,-106.88 2.7,-3.4 4.78,-5.47 3.89,-8.91 -1.37,-5.35 -2.58,-10.73 -4.05,-16.05 -1.11,-3.95 -4.42,-5.39 -8.41,-3.77 -7.84,3.17 -14.38,8.17 -19.68,14.75 -18.07,22.37 -23.23,66.61 0.65,104.07 26.47,41.5 75.69,58.28 120.63,53.19 53.67,-6.1 87.6,-42.77 93.95,-84.38 2.9,-18.96 0.81,-65.69 -25.79,-98.72 -30.61,-37.96 -80.22,-40.47 -103.11,-17.18 -1.77,1.79 -3.19,3.89 -4.9,6.02 -0.26,-0.86 -0.49,-1.59 -0.68,-2.31 -10.99,-43.06 -12.22,-52.62 -23.5,-72.62 -1.74,-3.06 -3.68,-6 -5.55,-8.97 16.59,-5.16 34.23,-7.93 52.5,-7.93 97.7,0 176.91,79.2 176.91,176.9 0,97.71 -79.21,176.92 -176.91,176.92"
         style="fill:#040606;fill-opacity:1;fill-rule:nonzero;stroke:none"
         id="path134" /><path
         d="m 7698.84,1740.09 c 0.19,0.72 0.42,1.45 0.68,2.31 1.71,-2.13 3.13,-4.23 4.9,-6.02 22.89,-23.29 72.5,-20.78 103.11,17.18 26.6,33.03 28.69,79.76 25.79,98.72 -6.35,41.61 -40.28,78.28 -93.95,84.38 -44.94,5.09 -94.16,-11.69 -120.63,-53.19 -23.88,-37.46 -18.72,-81.7 -0.65,-104.07 5.3,-6.58 11.84,-11.58 19.68,-14.75 3.99,-1.62 7.3,-0.18 8.41,3.77 1.47,5.32 2.68,10.7 4.05,16.05 0.89,3.44 -1.19,5.51 -3.89,8.91 -21.27,26.68 -10.56,85.09 36.55,106.88 41.11,19.02 105.87,6.25 109.38,-52.83 1.77,-29.62 -7.56,-71.43 -31.6,-88.86 -26.08,-18.92 -56.57,-0.5 -50.04,25.41 7.89,31.4 18.16,52.64 14.29,68.88 -6.31,26.25 -42.38,23.81 -52.42,-7.99 -4.64,-14.74 -3.59,-29.27 1.72,-43.6 0.48,-1.28 0.84,-2.46 0.51,-3.88 -22.18,-93.28 -24.3,-99.18 -24.87,-116.39 -0.17,-4.99 0.05,-9.96 0.25,-14.93 6.4,-2.86 12.91,-5.47 19.68,-7.57 1.87,2.97 3.81,5.91 5.55,8.97 11.28,20 12.51,29.56 23.5,72.62"
         style="fill:#ffffff;fill-opacity:1;fill-rule:nonzero;stroke:none"
         id="path136" /><path
         d="m 7899.2,735.84 c 0,-97.699 -79.21,-176.91 -176.9,-176.91 -97.71,0 -176.92,79.211 -176.92,176.91 0,97.699 79.21,176.91 176.92,176.91 97.69,0 176.9,-79.211 176.9,-176.91"
         style="fill:#040606;fill-opacity:1;fill-rule:nonzero;stroke:none"
         id="path138" /><path
         d="m 7684.78,671.172 3.49,-2.082 c 12.79,-7.61 27.33,-11.649 42.07,-11.649 45.44,0 82.4,36.969 82.4,82.418 0,45.442 -36.96,82.403 -82.4,82.403 -45.44,0 -82.42,-36.961 -82.42,-82.403 0,-15.007 4.17,-29.789 12.05,-42.738 l 2.14,-3.5 -8.23,-30.73 z m -58.07,-35.453 14.76,55.043 c -8.36,15.07 -12.76,31.957 -12.76,49.097 0,56.02 45.59,101.61 101.63,101.61 56.02,0 101.61,-45.59 101.61,-101.61 0,-56.039 -45.59,-101.629 -101.61,-101.629 -16.83,0 -33.44,4.25 -48.31,12.321 l -55.32,-14.832"
         style="fill:#ffffff;fill-opacity:1;fill-rule:nonzero;stroke:none"
         id="path140" /><path
         d="m 7768.13,725.719 c -4.18,2.5 -9.62,5.301 -14.55,3.281 -3.78,-1.551 -6.19,-7.461 -8.64,-10.488 -1.25,-1.543 -2.76,-1.793 -4.69,-1.02 -14.19,5.656 -25.06,15.129 -32.89,28.188 -1.33,2.019 -1.09,3.621 0.5,5.5 2.38,2.789 5.35,5.949 5.98,9.699 0.65,3.75 -1.12,8.152 -2.66,11.492 -1.99,4.258 -4.2,10.359 -8.48,12.77 -3.94,2.23 -9.12,0.98 -12.62,-1.879 -6.04,-4.922 -8.96,-12.633 -8.88,-20.282 0.02,-2.179 0.3,-4.339 0.81,-6.429 1.22,-5.051 3.54,-9.762 6.17,-14.242 1.98,-3.379 4.13,-6.649 6.44,-9.809 7.6,-10.309 17.03,-19.27 27.97,-25.961 5.46,-3.348 11.35,-6.277 17.44,-8.301 6.83,-2.25 12.92,-4.597 20.3,-3.207 7.73,1.481 15.34,6.25 18.4,13.699 0.91,2.2 1.37,4.661 0.86,6.989 -1.05,4.812 -7.56,7.672 -11.46,10"
         style="fill:#ffffff;fill-opacity:1;fill-rule:evenodd;stroke:none"
         id="path142" /><path
         d="m 7899.2,190.02 c 0,-97.6997 -79.21,-176.9106 -176.9,-176.9106 -97.71,0 -176.92,79.2109 -176.92,176.9106 0,97.71 79.21,176.91 176.92,176.91 97.69,0 176.9,-79.2 176.9,-176.91"
         style="fill:#040606;fill-opacity:1;fill-rule:nonzero;stroke:none"
         id="path144" /><path
         d="m 7753.13,186.23 -48.71,-24.101 c -1.92,-1.027 -8.4,0.351 -8.4,2.523 v 49.469 c 0,2.199 6.54,3.578 8.45,2.488 l 46.63,-25.367 c 1.95,-1.113 4,-3.933 2.03,-5.012 z m 63.88,29.071 c 0,23.449 -19.02,42.48 -42.48,42.48 H 7665.9 c -23.46,0 -42.48,-19.031 -42.48,-42.48 V 164.75 c 0,-23.469 19.02,-42.48 42.48,-42.48 h 108.63 c 23.46,0 42.48,19.011 42.48,42.48 v 50.551"
         style="fill:#ffffff;fill-opacity:1;fill-rule:nonzero;stroke:none"
         id="path146" /><path
         d="m 7174.95,3033.46 c -11.46,0 -20.75,-9.29 -20.75,-20.74 0,-11.46 9.29,-20.75 20.75,-20.75 11.45,0 20.74,9.29 20.74,20.75 0,11.45 -9.29,20.74 -20.74,20.74"
         style="fill:#040606;fill-opacity:1;fill-rule:nonzero;stroke:none"
         id="path148" /><path
         d="m 7082.73,2863.91 c -30.78,0 -55.82,25.04 -55.82,55.81 0,30.78 25.04,55.82 55.82,55.82 30.77,0 55.81,-25.04 55.81,-55.82 0,-30.77 -25.04,-55.81 -55.81,-55.81 z m 0,142.95 c -48.05,0 -87.14,-39.09 -87.14,-87.14 0,-48.04 39.09,-87.13 87.14,-87.13 48.04,0 87.13,39.09 87.13,87.13 0,48.05 -39.09,87.14 -87.13,87.14"
         style="fill:#040606;fill-opacity:1;fill-rule:nonzero;stroke:none"
         id="path150" /><path
         d="m 7010.64,3063.34 c -40.25,0 -72.99,-32.74 -72.99,-72.99 v -141.26 c 0,-40.25 32.74,-72.99 72.99,-72.99 h 141.26 c 40.25,0 73,32.74 73,72.99 v 141.26 c 0,40.25 -32.75,72.99 -73,72.99 z m 141.26,-320.53 h -141.26 c -58.61,0 -106.27,47.68 -106.27,106.28 v 141.26 c 0,58.61 47.66,106.28 106.27,106.28 h 141.26 c 58.6,0 106.28,-47.67 106.28,-106.28 v -141.26 c 0,-58.6 -47.68,-106.28 -106.28,-106.28"
         style="fill:#040606;fill-opacity:1;fill-rule:nonzero;stroke:none"
         id="path152" /><path
         d="m 7163.61,3443.55 9.82,64.04 h -61.44 v 41.55 c 0,17.52 8.58,34.59 36.1,34.59 h 27.93 v 54.52 c 0,0 -25.34,4.32 -49.58,4.32 -50.61,0 -83.67,-30.66 -83.67,-86.18 v -48.8 h -56.25 v -64.04 h 56.25 v -154.79 h 69.22 v 154.79 h 51.62"
         style="fill:#040606;fill-opacity:1;fill-rule:nonzero;stroke:none"
         id="path154" /><path
         d="m 7294.45,2508.28 c -13.66,-6.18 -28.75,-9.92 -43.48,-12.39 6.99,1.17 17.26,13.83 21.38,18.95 6.28,7.8 11.49,16.7 14.42,26.31 0.38,0.75 0.67,1.69 -0.09,2.26 -0.94,0.37 -1.55,0.18 -2.3,-0.19 -16.45,-8.81 -33.45,-15.2 -51.55,-19.73 -1.5,-0.37 -2.62,0 -3.56,0.95 -1.49,1.69 -2.91,3.29 -4.5,4.6 -7.61,6.47 -15.77,11.55 -24.97,15.3 -12.08,4.92 -25.28,7.01 -38.29,6.17 -12.67,-0.83 -25.1,-4.39 -36.33,-10.26 -11.26,-5.88 -21.31,-14.07 -29.32,-23.94 -8.27,-10.22 -14.37,-22.27 -17.5,-35.06 -3,-12.34 -2.76,-24.54 -0.92,-37.01 0.28,-2.07 0.09,-2.35 -1.78,-2.07 -70.79,10.54 -129.47,35.86 -177.11,90.15 -2.07,2.36 -3.19,2.36 -4.88,-0.18 -20.85,-31.25 -10.74,-81.44 15.3,-106.11 3.48,-3.3 7.04,-6.58 10.89,-9.58 -1.41,-0.29 -18.73,1.58 -34.18,9.58 -2.06,1.31 -3.11,0.55 -3.29,-1.79 -0.19,-3.38 0.1,-6.49 0.56,-10.15 4,-31.67 25.94,-60.96 55.98,-72.4 3.56,-1.5 7.51,-2.81 11.35,-3.47 -6.84,-1.5 -13.89,-2.57 -33.52,-1.03 -2.44,0.46 -3.37,-0.76 -2.44,-3.11 14.76,-40.19 46.58,-52.16 70.43,-58.97 3.19,-0.56 6.39,-0.56 9.59,-1.31 -0.2,-0.29 -0.39,-0.29 -0.58,-0.57 -7.9,-12.05 -35.32,-21.02 -48.09,-25.48 -23.22,-8.12 -48.51,-11.77 -73.05,-9.35 -3.92,0.58 -4.75,0.53 -5.81,0 -1.08,-0.67 -0.15,-1.61 1.12,-2.63 4.98,-3.29 10.05,-6.2 15.22,-9.02 15.58,-8.26 31.83,-14.84 48.83,-19.53 87.75,-24.23 186.59,-6.42 252.48,59.04 51.74,51.41 69.88,122.31 69.88,193.29 0,2.78 3.28,4.31 5.22,5.78 13.47,10.11 24.33,22.22 34.37,35.73 2.26,3.04 2.28,5.74 2.28,6.85 0,0.19 0,0.37 0,0.37 0,1.14 -0.02,0.79 -1.76,0"
         style="fill:#040606;fill-opacity:1;fill-rule:nonzero;stroke:none"
         id="path156" /><path
         d="m 7235.63,1316.33 c -2.95,-0.28 -5.91,-0.43 -8.88,-0.45 -32.5,0 -62.8,16.38 -80.6,43.57 v -148.34 c 0,-60.56 -49.1,-109.64 -109.64,-109.64 -60.56,0 -109.64,49.08 -109.64,109.64 0,60.55 49.08,109.63 109.64,109.63 v 0 c 2.28,0 4.52,-0.2 6.77,-0.34 v -54.03 c -2.25,0.27 -4.46,0.68 -6.77,0.68 -30.91,0 -55.96,-25.06 -55.96,-55.95 0,-30.91 25.05,-55.96 55.96,-55.96 30.91,0 58.2,24.35 58.2,55.26 l 0.55,251.94 h 51.69 c 4.87,-46.35 42.24,-82.56 88.73,-85.96 v -60.05"
         style="fill:#040606;fill-opacity:1;fill-rule:nonzero;stroke:none"
         id="path158" /><path
         d="m 7058.85,1773.95 c -0.3,-1.02 -0.57,-1.87 -0.8,-2.73 -13,-50.91 -14.44,-62.22 -27.79,-85.88 -6.38,-11.23 -13.55,-21.88 -21.49,-32.08 -0.9,-1.15 -1.73,-2.63 -3.52,-2.27 -1.96,0.42 -2.11,2.18 -2.33,3.75 -2.14,15.47 -3.31,30.99 -2.8,46.6 0.67,20.35 3.19,27.33 29.42,137.65 0.39,1.68 -0.04,3.07 -0.6,4.6 -6.28,16.93 -7.52,34.12 -2.04,51.54 11.87,37.63 54.53,40.51 61.99,9.46 4.59,-19.2 -7.56,-44.32 -16.89,-81.46 -7.73,-30.65 28.34,-52.43 59.18,-30.06 28.42,20.62 39.46,70.07 37.36,105.11 -4.13,69.86 -80.73,84.96 -129.35,62.46 -55.71,-25.76 -68.38,-94.83 -43.22,-126.39 3.18,-4.02 5.64,-6.47 4.59,-10.55 -1.62,-6.31 -3.05,-12.68 -4.79,-18.97 -1.3,-4.67 -5.22,-6.38 -9.95,-4.45 -9.27,3.75 -17,9.65 -23.27,17.43 -21.36,26.45 -27.47,78.79 0.77,123.08 31.3,49.09 89.52,68.94 142.66,62.91 63.48,-7.21 103.6,-50.59 111.12,-99.79 3.42,-22.42 0.96,-77.69 -30.5,-116.76 -36.21,-44.89 -94.89,-47.86 -121.96,-20.31 -2.08,2.11 -3.75,4.59 -5.79,7.11"
         style="fill:#040606;fill-opacity:1;fill-rule:evenodd;stroke:none"
         id="path160" /><path
         d="m 7004.66,620 5.99,-3.57 c 21.99,-13.098 47.01,-20.032 72.34,-20.032 78.15,0 141.72,63.571 141.72,141.723 0,78.141 -63.57,141.719 -141.72,141.719 -78.13,0 -141.72,-63.578 -141.72,-141.719 0,-25.801 7.17,-51.211 20.74,-73.48 l 3.67,-6.032 -14.16,-52.847 z m -99.86,-60.941 25.36,94.632 c -14.36,25.918 -21.91,54.95 -21.91,84.43 0,96.348 78.38,174.75 174.74,174.75 96.36,0 174.76,-78.402 174.76,-174.75 0,-96.359 -78.4,-174.762 -174.76,-174.762 -28.92,0 -57.49,7.313 -83.06,21.172 l -95.13,-25.472"
         style="fill:#040606;fill-opacity:1;fill-rule:nonzero;stroke:none"
         id="path162" /><path
         d="m 7148,713.809 c -7.2,4.312 -16.55,9.113 -25.03,5.652 -6.49,-2.672 -10.64,-12.852 -14.86,-18.039 -2.16,-2.672 -4.74,-3.082 -8.06,-1.75 -24.4,9.726 -43.1,26.019 -56.57,48.457 -2.28,3.492 -1.87,6.242 0.88,9.473 4.07,4.789 9.18,10.23 10.28,16.687 1.1,6.449 -1.93,13.992 -4.6,19.75 -3.41,7.34 -7.22,17.813 -14.58,21.973 -6.76,3.82 -15.67,1.679 -21.69,-3.223 -10.4,-8.48 -15.42,-21.738 -15.27,-34.898 0.05,-3.743 0.51,-7.469 1.38,-11.071 2.1,-8.672 6.1,-16.781 10.62,-24.468 3.4,-5.813 7.1,-11.45 11.09,-16.872 13.05,-17.73 29.29,-33.14 48.09,-44.66 9.4,-5.75 19.51,-10.8 29.99,-14.261 11.75,-3.879 22.22,-7.918 34.91,-5.508 13.28,2.519 26.39,10.738 31.66,23.539 1.56,3.801 2.34,8.019 1.47,12.019 -1.81,8.282 -13.01,13.2 -19.71,17.2"
         style="fill:#040606;fill-opacity:1;fill-rule:evenodd;stroke:none"
         id="path164" /><path
         d="m 7142.4,182.98 -90.47,-44.761 c -3.55,-1.91 -15.6,0.66 -15.6,4.691 v 91.871 c 0,4.078 12.15,6.649 15.7,4.629 l 86.6,-47.109 c 3.63,-2.071 7.44,-7.332 3.77,-9.321 z m 118.63,53.981 c 0,43.57 -35.32,78.891 -78.89,78.891 H 6980.4 c -43.57,0 -78.88,-35.321 -78.88,-78.891 v -93.879 c 0,-43.582 35.31,-78.8906 78.88,-78.8906 h 201.74 c 43.57,0 78.89,35.3086 78.89,78.8906 v 93.879"
         style="fill:#040606;fill-opacity:1;fill-rule:nonzero;stroke:none"
         id="path166" /><path
         d="M 293.387,3301.14 H 86.6602 c -13.0469,0 -23.6641,10.61 -23.6641,23.66 0,70.04 56.9839,127.02 127.0239,127.02 70.039,0 127.019,-56.98 127.019,-127.02 0,-13.05 -10.609,-23.66 -23.652,-23.66 z m -178.711,252.25 c 0,41.54 33.801,75.33 75.344,75.33 41.543,0 75.339,-33.79 75.339,-75.33 0,-41.54 -33.796,-75.34 -75.339,-75.34 -41.543,0 -75.344,33.8 -75.344,75.34 z m 130.019,-85.46 c 28.157,18.07 46.895,49.59 46.895,85.46 0,56 -45.567,101.56 -101.57,101.56 -56.004,0 -101.5708,-45.56 -101.5708,-101.56 0,-35.87 18.7418,-67.39 46.8948,-85.46 -57.5706,-22.07 -98.5745,-77.89 -98.5745,-143.13 0,-27.51 22.3828,-49.89 49.8907,-49.89 H 293.387 c 27.504,0 49.883,22.38 49.883,49.89 0,65.24 -41,121.06 -98.575,143.13"
         style="fill:#e62299;fill-opacity:1;fill-rule:nonzero;stroke:none"
         id="path168" /><path
         d="M 267.543,2753.33 H 112.5 c -16.8867,0 -30.6172,13.74 -30.6172,30.62 v 27.52 H 298.156 v -27.52 c 0,-16.88 -13.734,-30.62 -30.613,-30.62 z M 112.5,3084.89 h 155.043 c 16.879,0 30.613,-13.73 30.613,-30.61 V 2837.7 H 81.8828 v 216.58 c 0,16.88 13.7305,30.61 30.6172,30.61 z m 155.043,26.23 H 112.5 c -31.3437,0 -56.8437,-25.5 -56.8437,-56.84 v -270.33 c 0,-31.35 25.5,-56.84 56.8437,-56.84 h 155.043 c 31.344,0 56.84,25.49 56.84,56.84 v 270.33 c 0,31.34 -25.496,56.84 -56.84,56.84"
         style="fill:#2e68bb;fill-opacity:1;fill-rule:nonzero;stroke:none"
         id="path170" /><path
         d="m 186.434,3047.16 c 5.796,0 10.488,4.69 10.488,10.49 0,5.79 -4.692,10.49 -10.488,10.49 -5.789,0 -10.489,-4.7 -10.489,-10.49 0,-5.8 4.7,-10.49 10.489,-10.49"
         style="fill:#2e68bb;fill-opacity:1;fill-rule:nonzero;stroke:none"
         id="path172" /><path
         d="m 186.434,2795.16 c -5.789,0 -10.489,-4.7 -10.489,-10.49 0,-5.8 4.7,-10.49 10.489,-10.49 5.796,0 10.488,4.69 10.488,10.49 0,5.79 -4.692,10.49 -10.488,10.49"
         style="fill:#2e68bb;fill-opacity:1;fill-rule:nonzero;stroke:none"
         id="path174" /><path
         d="M 316.68,2209.18 H 63.3594 v 150.68 H 316.68 Z m -153.215,316.16 c 6.699,7.67 16.375,12.07 26.558,12.07 10.176,0 19.856,-4.4 26.547,-12.07 L 338.078,2386.09 H 41.957 Z m 213.344,-143.75 -140.473,161 c -11.68,13.37 -28.559,21.05 -46.313,21.05 -17.757,0 -34.636,-7.68 -46.32,-21.05 l -140.47253,-161 c -3.378908,-3.87 -4.183595,-9.37 -2.05469,-14.04 2.12891,-4.69 6.79688,-7.69 11.93752,-7.69 h 24.0195 v -163.8 c 0,-7.24 5.8672,-13.11 13.1133,-13.11 H 329.793 c 7.246,0 13.117,5.87 13.117,13.11 v 163.8 h 24.016 c 5.144,0 9.812,3 11.933,7.69 2.137,4.67 1.329,10.17 -2.05,14.04"
         style="fill:#f9a837;fill-opacity:1;fill-rule:nonzero;stroke:none"
         id="path176" /><path
         d="m 353.813,1733.07 c 0,-15.79 -12.848,-28.64 -28.637,-28.64 H 54.8672 c -15.793,0 -28.6367,12.85 -28.6367,28.64 v 188.82 c 0,3.84 0.7695,7.5 2.1484,10.85 L 142.719,1803.01 c 11.961,-13.57 29.203,-21.37 47.304,-21.37 18.09,0 35.332,7.8 47.305,21.37 l 114.336,129.73 c 1.379,-3.35 2.149,-7.01 2.149,-10.85 z m -28.637,217.45 c 2.246,0 4.418,-0.28 6.512,-0.77 l -114.032,-129.4 c -6.992,-7.93 -17.066,-12.48 -27.633,-12.48 -10.57,0 -20.644,4.55 -27.632,12.48 l -114.0394,129.4 c 2.0976,0.49 4.2734,0.77 6.5156,0.77 z m 0,26.23 H 54.8672 C 24.6133,1976.75 0,1952.14 0,1921.89 v -188.82 c 0,-30.26 24.6133,-54.86 54.8672,-54.86 H 325.176 c 30.254,0 54.863,24.6 54.863,54.86 v 188.82 c 0,30.25 -24.609,54.86 -54.863,54.86"
         style="fill:#6f3ea2;fill-opacity:1;fill-rule:nonzero;stroke:none"
         id="path178" /><path
         d="m 315.727,1250.67 -139.454,-14.8 c -3.175,-0.33 -6.113,-1.81 -8.269,-4.17 L 71.1563,1126.26 c -2.7305,-0.67 -4.9024,0.38 -5.8165,0.95 -1.1093,0.67 -3.6875,2.68 -3.6875,6.58 l 0.0118,309.62 c 0,0.32 0,1.28 1.1367,1.86 0.3711,0.18 0.7031,0.25 0.9922,0.25 0.6015,0 1.0156,-0.3 1.1875,-0.42 L 315.203,1262.76 c 3.16,-2.31 3.262,-5.56 3.16,-6.86 -0.09,-1.07 -0.523,-3.45 -2.636,-5.23 z m 14.925,33.28 -250.2301,182.34 c -8.6563,6.31 -19.961,7.21 -29.5156,2.36 -9.5391,-4.87 -15.4688,-14.54 -15.4688,-25.24 l -0.0078,-309.62 c 0,-11.9 6.0547,-22.72 16.1992,-28.94 5.4649,-3.35 11.582,-5.04 17.7266,-5.04 5.2461,0 10.5195,1.24 15.414,3.72 1.3907,0.71 2.6524,1.67 3.7071,2.82 l 84.9494,92.49 50.914,-100.1 c 2.312,-4.55 6.918,-7.17 11.699,-7.17 1.996,0 4.031,0.46 5.938,1.43 6.453,3.28 9.023,11.17 5.742,17.64 l -51.367,100.99 125.14,13.27 c 1.594,0.17 3.141,0.63 4.563,1.35 10.609,5.4 17.504,15.71 18.445,27.56 0.949,11.87 -4.227,23.14 -13.848,30.14"
         style="fill:#19ae5b;fill-opacity:1;fill-rule:nonzero;stroke:none"
         id="path180" /><path
         d="m 190.02,898.199 c -66.387,0 -120.3989,-54.008 -120.3989,-120.39 0,-51.77 79.5629,-151.977 120.3989,-197.918 40.832,45.941 120.394,146.148 120.394,197.918 0,66.382 -54.008,120.39 -120.394,120.39 z m 0,-350.949 v 0 c -3.649,0 -7.125,1.52 -9.606,4.199 -5.601,6.012 -137.0156,148.36 -137.0156,226.36 0,80.839 65.7696,146.621 146.6216,146.621 80.843,0 146.625,-65.782 146.625,-146.621 0,-78 -131.422,-220.348 -137.024,-226.36 -2.48,-2.679 -5.957,-4.199 -9.601,-4.199"
         style="fill:#ef2f36;fill-opacity:1;fill-rule:nonzero;stroke:none"
         id="path182" /><path
         d="m 190.02,824 c -21.934,0 -39.782,-17.859 -39.782,-39.789 0,-21.93 17.848,-39.781 39.782,-39.781 21.937,0 39.785,17.851 39.785,39.781 0,21.93 -17.848,39.789 -39.785,39.789 z m 0,-105.801 c -36.399,0 -66.012,29.61 -66.012,66.012 0,36.398 29.613,66.008 66.012,66.008 36.402,0 66.007,-29.61 66.007,-66.008 0,-36.402 -29.605,-66.012 -66.007,-66.012"
         style="fill:#ef2f36;fill-opacity:1;fill-rule:nonzero;stroke:none"
         id="path184" /><path
         d="m 245.063,35.7617 c 21.148,31.6289 34.917,81.8673 36.699,141.1483 h 71.48 C 348.043,111.621 304.441,57.0195 245.063,35.7617 Z M 26.8008,176.91 H 98.2813 C 100.059,117.629 113.832,67.3906 134.973,35.7617 75.5977,57.0195 32,111.621 26.8008,176.91 Z M 134.973,344.27 C 113.832,312.648 100.059,262.398 98.2813,203.141 H 26.8008 C 32,268.41 75.5977,323.02 134.973,344.27 Z m -10.45,-141.129 c 2.965,89.429 35.836,150.668 65.497,150.668 29.66,0 62.531,-61.239 65.492,-150.668 z M 190.02,26.2188 c -29.661,0 -62.532,61.2421 -65.497,150.6912 H 255.512 C 252.551,87.4609 219.68,26.2188 190.02,26.2188 Z M 353.242,203.141 h -71.48 c -1.782,59.257 -15.551,109.507 -36.699,141.129 59.378,-21.25 102.98,-75.86 108.179,-141.129 z M 190.02,380.039 C 85.2422,380.039 0,294.801 0,190.02 0,85.2422 85.2422,-0.0078125 190.02,-0.0078125 c 104.781,0 190.019,85.2500125 190.019,190.0278125 0,104.781 -85.238,190.019 -190.019,190.019"
         style="fill:#2fbbe1;fill-opacity:1;fill-rule:nonzero;stroke:none"
         id="path186" /><path
         d="m 906.574,3566.3 c 0,-41.71 -33.816,-75.53 -75.531,-75.53 -41.719,0 -75.531,33.82 -75.531,75.53 0,41.72 33.812,75.54 75.531,75.54 41.715,0 75.531,-33.82 75.531,-75.54"
         style="fill:#e62299;fill-opacity:1;fill-rule:nonzero;stroke:none"
         id="path188" /><path
         d="m 831.043,3464.93 v 0 c -77.398,0 -140.137,-62.74 -140.137,-140.13 v 0 c 0,-20.31 16.465,-36.78 36.774,-36.78 h 206.722 c 20.313,0 36.774,16.47 36.774,36.78 v 0 c 0,77.39 -62.738,140.13 -140.133,140.13"
         style="fill:#e62299;fill-opacity:1;fill-rule:nonzero;stroke:none"
         id="path190" /><path
         d="m 831.043,3070.76 c 7.242,0 13.117,-5.87 13.117,-13.12 0,-7.24 -5.875,-13.11 -13.117,-13.11 -7.246,0 -13.113,5.87 -13.113,13.11 0,7.25 5.867,13.12 13.113,13.12 z m 121.25,-233.06 v 216.58 c 0,24.15 -19.574,43.73 -43.73,43.73 H 753.52 c -24.153,0 -43.727,-19.58 -43.727,-43.73 V 2837.7 h 242.5"
         style="fill:#2e68bb;fill-opacity:1;fill-rule:nonzero;stroke:none"
         id="path192" /><path
         d="m 831.043,2764.54 c -7.246,0 -13.113,5.87 -13.113,13.11 0,7.24 5.867,13.11 13.113,13.11 7.242,0 13.117,-5.87 13.117,-13.11 0,-7.24 -5.875,-13.11 -13.117,-13.11 z m -121.25,46.93 v -27.52 c 0,-24.15 19.574,-43.73 43.727,-43.73 h 155.043 c 24.156,0 43.73,19.58 43.73,43.73 v 27.52 h -242.5"
         style="fill:#2e68bb;fill-opacity:1;fill-rule:nonzero;stroke:none"
         id="path194" /><path
         d="m 794.609,2533.96 -125.304,-143.6 c -5.918,-6.79 -1.098,-17.39 7.906,-17.39 h 36.531 257.078 14.059 c 9.004,0 13.82,10.6 7.898,17.39 l -125.304,143.6 c -19.266,22.09 -53.59,22.09 -72.864,0"
         style="fill:#f9a837;fill-opacity:1;fill-rule:nonzero;stroke:none"
         id="path196" /><path
         d="m 970.82,2346.6 v -140.04 c 0,-5.8 -4.699,-10.5 -10.496,-10.5 H 701.762 c -5.797,0 -10.492,4.7 -10.492,10.5 v 140.04 h 279.55"
         style="fill:#f9a837;fill-opacity:1;fill-rule:nonzero;stroke:none"
         id="path198" /><path
         d="m 680.477,1959.85 122.941,-139.5 c 6.984,-7.93 17.055,-12.48 27.633,-12.48 10.562,0 20.633,4.55 27.625,12.48 l 120.808,137.07 c 0.996,1.14 2.18,2.01 3.426,2.71 -5.117,2.25 -10.769,3.51 -16.711,3.51 H 695.891 c -5.688,0 -11.106,-1.15 -16.043,-3.21 0.203,-0.2 0.433,-0.37 0.629,-0.58"
         style="fill:#6f3ea2;fill-opacity:1;fill-rule:nonzero;stroke:none"
         id="path200" /><path
         d="m 1001.53,1944.06 c -0.54,-1.41 -1.3,-2.78 -2.362,-3.98 L 878.352,1803.01 c -11.969,-13.58 -29.211,-21.37 -47.301,-21.37 -18.102,0 -35.344,7.79 -47.313,21.37 L 660.797,1942.5 c -0.246,0.29 -0.422,0.6 -0.641,0.9 -3.797,-6.3 -6.019,-13.63 -6.019,-21.52 v -188.81 c 0,-23.06 18.695,-41.76 41.754,-41.76 h 270.308 c 23.059,0 41.751,18.7 41.751,41.76 v 188.81 c 0,8.16 -2.38,15.75 -6.42,22.18"
         style="fill:#6f3ea2;fill-opacity:1;fill-rule:nonzero;stroke:none"
         id="path202" /><path
         d="m 963.953,1279.9 -250.23,182.35 c -10.043,7.31 -24.149,0.15 -24.149,-12.29 l -0.011,-309.62 c 0,-15.54 16.417,-25.62 30.281,-18.57 l 88.261,96.1 57.254,-112.57 c 2.321,-4.56 6.926,-7.17 11.7,-7.17 2.004,0 4.035,0.46 5.937,1.42 6.457,3.28 9.027,11.19 5.742,17.64 l -57.722,113.51 130.117,13.79 c 13.859,7.06 15.39,26.25 2.82,35.41"
         style="fill:#19ae5b;fill-opacity:1;fill-rule:nonzero;stroke:none"
         id="path204" /><path
         d="m 831.039,821.422 c -21.934,0 -39.781,-17.852 -39.781,-39.793 0,-21.93 17.847,-39.777 39.781,-39.777 21.941,0 39.789,17.847 39.789,39.777 0,21.941 -17.848,39.793 -39.789,39.793"
         style="fill:#ef2f36;fill-opacity:1;fill-rule:nonzero;stroke:none"
         id="path206" /><path
         d="m 831.039,715.621 c -36.391,0 -66.008,29.621 -66.008,66.008 0,36.402 29.617,66.012 66.008,66.012 36.402,0 66.016,-29.61 66.016,-66.012 0,-36.387 -29.614,-66.008 -66.016,-66.008 z m 0.004,193.109 c -73.734,0 -133.512,-59.769 -133.512,-133.5 0,-62.871 97.067,-176.609 125.672,-208.761 4.18,-4.699 11.496,-4.699 15.684,0 28.601,32.152 125.668,145.89 125.668,208.761 0,73.731 -59.778,133.5 -133.512,133.5"
         style="fill:#ef2f36;fill-opacity:1;fill-rule:nonzero;stroke:none"
         id="path208" /><path
         d="m 765.551,176.91 c 2.965,-89.4491 35.832,-150.6912 65.492,-150.6912 29.66,0 62.531,61.2421 65.492,150.6912 H 765.551"
         style="fill:#2fbbe1;fill-opacity:1;fill-rule:nonzero;stroke:none"
         id="path210" /><path
         d="m 831.043,353.809 c -29.66,0 -62.527,-61.239 -65.492,-150.668 h 130.984 c -2.961,89.429 -35.832,150.668 -65.492,150.668"
         style="fill:#2fbbe1;fill-opacity:1;fill-rule:nonzero;stroke:none"
         id="path212" /><path
         d="m 922.785,203.141 h 84.635 c -5.73,78.007 -62.018,141.941 -136.264,159.168 29.453,-28.028 49.457,-86.899 51.629,-159.168"
         style="fill:#2fbbe1;fill-opacity:1;fill-rule:nonzero;stroke:none"
         id="path214" /><path
         d="M 922.785,176.91 C 920.613,104.621 900.609,45.7617 871.156,17.7422 945.402,34.9609 1001.69,98.8906 1007.42,176.91 h -84.635"
         style="fill:#2fbbe1;fill-opacity:1;fill-rule:nonzero;stroke:none"
         id="path216" /><path
         d="M 739.305,176.91 H 654.672 C 660.395,98.8906 716.684,34.9609 790.926,17.7422 761.484,45.7617 741.473,104.621 739.305,176.91"
         style="fill:#2fbbe1;fill-opacity:1;fill-rule:nonzero;stroke:none"
         id="path218" /><path
         d="m 739.305,203.141 c 2.168,72.269 22.179,131.14 51.621,159.168 C 716.684,345.082 660.395,281.148 654.672,203.141 h 84.633"
         style="fill:#2fbbe1;fill-opacity:1;fill-rule:nonzero;stroke:none"
         id="path220" /><path
         d="m 1648.97,3464.93 c 0,-97.7 -79.2,-176.91 -176.91,-176.91 -97.7,0 -176.9,79.21 -176.9,176.91 0,97.7 79.2,176.91 176.9,176.91 97.71,0 176.91,-79.21 176.91,-176.91"
         style="fill:#e62299;fill-opacity:1;fill-rule:nonzero;stroke:none"
         id="path222" /><path
         d="m 1522.45,3548.3 c 0,-27.84 -22.55,-50.39 -50.39,-50.39 -27.82,0 -50.39,22.55 -50.39,50.39 0,27.83 22.57,50.39 50.39,50.39 27.84,0 50.39,-22.56 50.39,-50.39"
         style="fill:#ffffff;fill-opacity:1;fill-rule:nonzero;stroke:none"
         id="path224" /><path
         d="m 1472.06,3480.67 v 0 c -51.63,0 -93.48,-41.86 -93.48,-93.49 v 0 c 0,-13.55 10.98,-24.53 24.53,-24.53 h 137.91 c 13.55,0 24.54,10.98 24.54,24.53 v 0 c 0,51.63 -41.86,93.49 -93.5,93.49"
         style="fill:#ffffff;fill-opacity:1;fill-rule:nonzero;stroke:none"
         id="path226" /><path
         d="m 1648.97,2919.11 c 0,-97.7 -79.2,-176.91 -176.91,-176.91 -97.7,0 -176.9,79.21 -176.9,176.91 0,97.71 79.2,176.91 176.9,176.91 97.71,0 176.91,-79.2 176.91,-176.91"
         style="fill:#2e68bb;fill-opacity:1;fill-rule:nonzero;stroke:none"
         id="path228" /><path
         d="m 1472.06,3019.16 c 4.78,0 8.66,-3.87 8.66,-8.65 0,-4.78 -3.88,-8.65 -8.66,-8.65 -4.77,0 -8.64,3.87 -8.64,8.65 0,4.78 3.87,8.65 8.64,8.65 z m 80,-153.76 v 142.88 c 0,15.94 -12.92,28.86 -28.85,28.86 h -102.29 c -15.93,0 -28.85,-12.92 -28.85,-28.86 V 2865.4 h 159.99"
         style="fill:#ffffff;fill-opacity:1;fill-rule:nonzero;stroke:none"
         id="path230" /><path
         d="m 1472.06,2817.14 c -4.77,0 -8.64,3.87 -8.64,8.65 0,4.78 3.87,8.65 8.64,8.65 4.78,0 8.66,-3.87 8.66,-8.65 0,-4.78 -3.88,-8.65 -8.66,-8.65 z m -79.99,30.96 v -18.16 c 0,-15.93 12.92,-28.85 28.85,-28.85 h 102.29 c 15.93,0 28.85,12.92 28.85,28.85 v 18.16 h -159.99"
         style="fill:#ffffff;fill-opacity:1;fill-rule:nonzero;stroke:none"
         id="path232" /><path
         d="m 1648.97,2373.29 c 0,-97.7 -79.2,-176.91 -176.91,-176.91 -97.7,0 -176.9,79.21 -176.9,176.91 0,97.71 79.2,176.91 176.9,176.91 97.71,0 176.91,-79.2 176.91,-176.91"
         style="fill:#f9a837;fill-opacity:1;fill-rule:nonzero;stroke:none"
         id="path234" /><path
         d="m 1447.81,2496.02 -83.45,-95.63 c -3.94,-4.51 -0.73,-11.57 5.27,-11.57 h 24.32 171.2 9.36 c 5.99,0 9.2,7.06 5.26,11.57 l -83.44,95.63 c -12.84,14.71 -35.7,14.71 -48.52,0"
         style="fill:#ffffff;fill-opacity:1;fill-rule:nonzero;stroke:none"
         id="path236" /><path
         d="M 1565.15,2371.26 V 2278 c 0,-3.86 -3.13,-6.99 -6.99,-6.99 h -172.18 c -3.86,0 -6.99,3.13 -6.99,6.99 v 93.26 h 186.16"
         style="fill:#ffffff;fill-opacity:1;fill-rule:nonzero;stroke:none"
         id="path238" /><path
         d="m 1648.97,1827.47 c 0,-97.7 -79.2,-176.9 -176.91,-176.9 -97.7,0 -176.9,79.2 -176.9,176.9 0,97.71 79.2,176.92 176.9,176.92 97.71,0 176.91,-79.21 176.91,-176.92"
         style="fill:#6f3ea2;fill-opacity:1;fill-rule:nonzero;stroke:none"
         id="path240" /><path
         d="m 1371.62,1915.78 82.02,-93.06 c 4.65,-5.29 11.37,-8.32 18.43,-8.32 7.05,0 13.77,3.03 18.43,8.32 l 80.6,91.45 c 0.66,0.75 1.45,1.34 2.28,1.81 -3.42,1.49 -7.18,2.33 -11.15,2.33 H 1381.9 c -3.8,0 -7.41,-0.76 -10.7,-2.14 0.14,-0.13 0.29,-0.24 0.42,-0.39"
         style="fill:#ffffff;fill-opacity:1;fill-rule:nonzero;stroke:none"
         id="path242" /><path
         d="m 1585.8,1905.26 c -0.36,-0.95 -0.86,-1.86 -1.57,-2.66 l -80.6,-91.45 c -7.99,-9.06 -19.49,-14.25 -31.56,-14.25 -12.08,0 -23.58,5.19 -31.56,14.25 l -82.02,93.06 c -0.17,0.19 -0.28,0.4 -0.43,0.6 -2.53,-4.19 -4.01,-9.09 -4.01,-14.35 v -125.97 c 0,-15.38 12.47,-27.85 27.85,-27.85 h 180.33 c 15.39,0 27.86,12.47 27.86,27.85 v 125.97 c 0,5.44 -1.59,10.51 -4.29,14.8"
         style="fill:#ffffff;fill-opacity:1;fill-rule:nonzero;stroke:none"
         id="path244" /><path
         d="m 1648.97,1281.66 c 0,-97.7 -79.2,-176.91 -176.91,-176.91 -97.7,0 -176.9,79.21 -176.9,176.91 0,97.7 79.2,176.91 176.9,176.91 97.71,0 176.91,-79.21 176.91,-176.91"
         style="fill:#19ae5b;fill-opacity:1;fill-rule:nonzero;stroke:none"
         id="path246" /><path
         d="m 1576.62,1280.56 -157.34,114.65 c -6.31,4.6 -15.18,0.09 -15.18,-7.73 l -0.01,-194.67 c 0,-9.78 10.32,-16.12 19.04,-11.68 l 55.5,60.43 36,-70.8 c 1.45,-2.86 4.35,-4.5 7.35,-4.5 1.26,0 2.54,0.29 3.74,0.9 4.05,2.06 5.67,7.02 3.6,11.08 l -36.29,71.37 81.81,8.68 c 8.72,4.44 9.68,16.51 1.78,22.27"
         style="fill:#ffffff;fill-opacity:1;fill-rule:nonzero;stroke:none"
         id="path248" /><path
         d="m 1648.97,735.84 c 0,-97.699 -79.2,-176.91 -176.91,-176.91 -97.7,0 -176.9,79.211 -176.9,176.91 0,97.699 79.2,176.91 176.9,176.91 97.71,0 176.91,-79.211 176.91,-176.91"
         style="fill:#ef2f36;fill-opacity:1;fill-rule:nonzero;stroke:none"
         id="path250" /><path
         d="m 1472.06,722.039 c -24.84,0 -45.05,20.211 -45.05,45.051 0,24.859 20.21,45.07 45.05,45.07 24.85,0 45.07,-20.211 45.07,-45.07 0,-24.84 -20.22,-45.051 -45.07,-45.051 z m 0,131.82 c -50.33,0 -91.13,-40.8 -91.13,-91.129 0,-42.921 66.26,-120.558 85.78,-142.5 2.86,-3.218 7.85,-3.218 10.71,0 19.52,21.942 85.78,99.579 85.78,142.5 0,50.329 -40.8,91.129 -91.14,91.129"
         style="fill:#ffffff;fill-opacity:1;fill-rule:nonzero;stroke:none"
         id="path252" /><path
         d="m 1648.97,190.02 c 0,-97.6997 -79.2,-176.9106 -176.91,-176.9106 -97.7,0 -176.9,79.2109 -176.9,176.9106 0,97.71 79.2,176.91 176.9,176.91 97.71,0 176.91,-79.2 176.91,-176.91"
         style="fill:#2fbbe1;fill-opacity:1;fill-rule:nonzero;stroke:none"
         id="path254" /><path
         d="m 1428.24,181.242 c 1.98,-59.844 23.98,-100.8318 43.82,-100.8318 19.85,0 41.85,40.9878 43.83,100.8318 h -87.65"
         style="fill:#ffffff;fill-opacity:1;fill-rule:nonzero;stroke:none"
         id="path256" /><path
         d="m 1472.06,299.621 c -19.84,0 -41.84,-40.98 -43.82,-100.832 h 87.65 c -1.98,59.852 -23.98,100.832 -43.83,100.832"
         style="fill:#ffffff;fill-opacity:1;fill-rule:nonzero;stroke:none"
         id="path258" /><path
         d="m 1533.46,198.789 h 56.63 c -3.83,52.223 -41.5,94.992 -91.18,106.52 19.71,-18.75 33.1,-58.149 34.55,-106.52"
         style="fill:#ffffff;fill-opacity:1;fill-rule:nonzero;stroke:none"
         id="path260" /><path
         d="m 1533.46,181.242 c -1.45,-48.371 -14.84,-87.7537 -34.55,-106.5037 49.68,11.5234 87.35,54.3007 91.18,106.5037 h -56.63"
         style="fill:#ffffff;fill-opacity:1;fill-rule:nonzero;stroke:none"
         id="path262" /><path
         d="m 1410.68,181.242 h -56.63 c 3.82,-52.203 41.49,-94.9803 91.17,-106.5037 -19.7,18.75 -33.09,58.1327 -34.54,106.5037"
         style="fill:#ffffff;fill-opacity:1;fill-rule:nonzero;stroke:none"
         id="path264" /><path
         d="m 1410.68,198.789 c 1.45,48.371 14.84,87.77 34.54,106.52 -49.68,-11.528 -87.35,-54.297 -91.17,-106.52 h 56.63"
         style="fill:#ffffff;fill-opacity:1;fill-rule:nonzero;stroke:none"
         id="path266" /><path
         d="m 3412.04,2373.29 c 0,-97.7 -79.2,-176.91 -176.9,-176.91 -97.71,0 -176.91,79.21 -176.91,176.91 0,97.71 79.2,176.91 176.91,176.91 97.7,0 176.9,-79.2 176.9,-176.91"
         style="fill:#2fbbe1;fill-opacity:1;fill-rule:nonzero;stroke:none"
         id="path268" /><path
         d="m 3332.88,2433.91 c -6.13,-2.77 -12.9,-4.45 -19.51,-5.56 3.13,0.52 7.74,6.2 9.59,8.5 2.82,3.51 5.16,7.5 6.48,11.81 0.16,0.34 0.29,0.76 -0.05,1.02 -0.42,0.17 -0.69,0.08 -1.03,-0.09 -7.38,-3.95 -15.01,-6.82 -23.14,-8.85 -0.67,-0.17 -1.17,0 -1.59,0.42 -0.67,0.76 -1.31,1.48 -2.02,2.07 -3.42,2.91 -7.08,5.18 -11.21,6.87 -5.43,2.21 -11.35,3.14 -17.19,2.76 -5.68,-0.37 -11.26,-1.97 -16.31,-4.6 -5.05,-2.64 -9.56,-6.31 -13.15,-10.75 -3.71,-4.58 -6.45,-9.99 -7.86,-15.73 -1.35,-5.54 -1.24,-11.02 -0.41,-16.61 0.12,-0.93 0.04,-1.06 -0.8,-0.93 -31.78,4.73 -58.11,16.09 -79.5,40.46 -0.92,1.06 -1.43,1.06 -2.19,-0.08 -9.35,-14.03 -4.81,-36.56 6.87,-47.63 1.56,-1.48 3.17,-2.95 4.89,-4.3 -0.63,-0.13 -8.41,0.72 -15.34,4.3 -0.93,0.59 -1.39,0.25 -1.48,-0.8 -0.08,-1.52 0.05,-2.91 0.26,-4.56 1.79,-14.21 11.64,-27.36 25.12,-32.49 1.6,-0.68 3.37,-1.27 5.1,-1.56 -3.07,-0.67 -6.24,-1.16 -15.05,-0.46 -1.1,0.21 -1.52,-0.34 -1.1,-1.39 6.63,-18.05 20.91,-23.42 31.62,-26.47 1.43,-0.26 2.86,-0.26 4.3,-0.59 -0.09,-0.13 -0.17,-0.13 -0.26,-0.25 -3.55,-5.42 -15.85,-9.45 -21.58,-11.45 -10.43,-3.64 -21.78,-5.28 -32.79,-4.19 -1.76,0.25 -2.14,0.24 -2.61,0 -0.49,-0.3 -0.06,-0.73 0.5,-1.18 2.24,-1.48 4.52,-2.78 6.83,-4.05 7,-3.71 14.29,-6.66 21.92,-8.77 39.38,-10.88 83.75,-2.88 113.32,26.5 23.23,23.08 31.37,54.9 31.37,86.76 0,1.24 1.47,1.93 2.35,2.59 6.04,4.54 10.91,9.97 15.42,16.04 1.01,1.36 1.02,2.57 1.02,3.07 0,0.09 0,0.17 0,0.17 0,0.51 -0.01,0.35 -0.79,0"
         style="fill:#ffffff;fill-opacity:1;fill-rule:nonzero;stroke:none"
         id="path270" /><g
         id="g272"><g
           id="g274"
           clip-path="url(#clipPath278)"><path
             d="m 3412.04,2919.11 c 0,-97.7 -79.2,-176.91 -176.9,-176.91 -97.71,0 -176.91,79.21 -176.91,176.91 0,97.71 79.2,176.91 176.91,176.91 97.7,0 176.9,-79.2 176.9,-176.91"
             style="fill:url(#linearGradient294);fill-opacity:1;fill-rule:nonzero;stroke:none"
             id="path296" /></g></g><path
         d="m 3290.05,2986.04 c -6.72,0 -12.16,-5.45 -12.16,-12.16 0,-6.72 5.44,-12.16 12.16,-12.16 6.72,0 12.16,5.44 12.16,12.16 0,6.71 -5.44,12.16 -12.16,12.16"
         style="fill:#ffffff;fill-opacity:1;fill-rule:nonzero;stroke:none"
         id="path298" /><path
         d="m 3235.99,2886.64 c -18.05,0 -32.72,14.68 -32.72,32.72 0,18.04 14.67,32.72 32.72,32.72 18.04,0 32.71,-14.68 32.71,-32.72 0,-18.04 -14.67,-32.72 -32.71,-32.72 z m 0,83.8 c -28.17,0 -51.09,-22.91 -51.09,-51.08 0,-28.17 22.92,-51.08 51.09,-51.08 28.16,0 51.08,22.91 51.08,51.08 0,28.17 -22.92,51.08 -51.08,51.08"
         style="fill:#ffffff;fill-opacity:1;fill-rule:nonzero;stroke:none"
         id="path300" /><path
         d="m 3193.72,3003.56 c -23.59,0 -42.78,-19.19 -42.78,-42.79 v -82.82 c 0,-23.59 19.19,-42.79 42.78,-42.79 h 82.82 c 23.6,0 42.79,19.2 42.79,42.79 v 82.82 c 0,23.6 -19.19,42.79 -42.79,42.79 z m 82.82,-187.91 h -82.82 c -34.35,0 -62.3,27.95 -62.3,62.3 v 82.82 c 0,34.35 27.95,62.3 62.3,62.3 h 82.82 c 34.35,0 62.31,-27.95 62.31,-62.3 v -82.82 c 0,-34.35 -27.96,-62.3 -62.31,-62.3"
         style="fill:#ffffff;fill-opacity:1;fill-rule:nonzero;stroke:none"
         id="path302" /><path
         d="m 3412.04,3464.93 c 0,97.7 -79.2,176.91 -176.9,176.91 -97.71,0 -176.91,-79.21 -176.91,-176.91 0,-88.3 64.69,-161.48 149.26,-174.76 v 123.63 h -44.91 v 51.13 h 44.91 v 38.98 c 0,44.34 26.42,68.83 66.83,68.83 19.35,0 39.59,-3.46 39.59,-3.46 v -43.53 h -22.3 c -21.98,0 -28.83,-13.64 -28.83,-27.63 v -33.19 h 49.06 L 3304,3413.8 h -41.22 v -123.63 c 84.57,13.28 149.26,86.46 149.26,174.76"
         style="fill:#3870c0;fill-opacity:1;fill-rule:nonzero;stroke:none"
         id="path304" /><path
         d="m 3304,3413.8 7.84,51.13 h -49.06 v 33.19 c 0,13.99 6.85,27.63 28.83,27.63 h 22.3 v 43.53 c 0,0 -20.24,3.46 -39.59,3.46 -40.41,0 -66.83,-24.49 -66.83,-68.83 v -38.98 h -44.91 v -51.13 h 44.91 v -123.63 c 9.01,-1.41 18.24,-2.15 27.65,-2.15 9.4,0 18.63,0.74 27.64,2.15 V 3413.8 H 3304"
         style="fill:#ffffff;fill-opacity:1;fill-rule:nonzero;stroke:none"
         id="path306" /><path
         d="m 3412.04,1281.65 c 0,-97.69 -79.2,-176.9 -176.9,-176.9 -97.71,0 -176.91,79.21 -176.91,176.9 0,97.71 79.2,176.92 176.91,176.92 97.7,0 176.9,-79.21 176.9,-176.92"
         style="fill:#040606;fill-opacity:1;fill-rule:nonzero;stroke:none"
         id="path308" /><path
         d="m 3189.44,1219.07 c -4.09,5.37 -6.31,11.93 -6.3,18.68 0,17.03 13.82,30.85 30.87,30.85 3.18,0 6.34,-0.49 9.37,-1.45 v 37.31 c -3.54,0.48 -7.11,0.69 -10.68,0.61 v -29.03 c -3.03,0.95 -6.19,1.44 -9.37,1.44 -17.05,0 -30.87,-13.82 -30.87,-30.86 0,-12.04 6.91,-22.47 16.98,-27.55 z m 105.34,129.85 c -7.33,8 -12.13,18.34 -13.18,29.77 v 4.69 h -10.12 c 2.55,-14.53 11.24,-26.94 23.3,-34.46 z m -13.18,-36.82 c 14.34,-10.24 31.91,-16.27 50.88,-16.27 v 36.49 c -3.59,0 -7.17,0.37 -10.68,1.12 v -28.73 c -18.97,0 -36.54,6.03 -50.88,16.28 v -74.46 c 0,-37.26 -30.21,-67.46 -67.48,-67.46 -13.91,0 -26.83,4.2 -37.57,11.41 12.25,-12.52 29.34,-20.29 48.25,-20.29 37.27,0 67.48,30.19 67.48,67.45 v 74.46 0"
         style="fill:#ee2659;fill-opacity:1;fill-rule:evenodd;stroke:none"
         id="path310" /><path
         d="m 3270.92,1320.99 c 14.34,-10.25 31.91,-16.28 50.88,-16.28 v 28.73 c -10.6,2.25 -19.97,7.78 -27.02,15.48 -12.06,7.52 -20.75,19.93 -23.3,34.46 h -26.6 v -145.74 c -0.06,-16.99 -13.86,-30.74 -30.87,-30.74 -10.02,0 -18.93,4.77 -24.57,12.17 -10.07,5.08 -16.98,15.51 -16.98,27.55 0,17.04 13.82,30.86 30.87,30.86 3.27,0 6.41,-0.5 9.36,-1.44 v 29.03 c -36.61,-0.76 -66.06,-30.65 -66.06,-67.43 0,-18.36 7.34,-35 19.24,-47.16 10.74,-7.21 23.66,-11.41 37.57,-11.41 37.27,0 67.48,30.2 67.48,67.45 v 74.47"
         style="fill:#ffffff;fill-opacity:1;fill-rule:evenodd;stroke:none"
         id="path312" /><path
         d="m 3212.7,1305.07 v 8.27 c -3.07,0.42 -6.16,0.63 -9.26,0.63 -37.27,0 -67.49,-30.2 -67.49,-67.44 0,-23.36 11.88,-43.94 29.92,-56.05 -11.9,12.16 -19.23,28.8 -19.23,47.16 0,36.78 29.44,66.67 66.06,67.43 z m 58.78,78.31 c -0.25,1.39 -0.43,2.78 -0.56,4.19 v 4.7 h -36.72 v -145.74 c -0.07,-17 -13.86,-30.76 -30.87,-30.76 -5,0 -9.71,1.2 -13.89,3.3 5.64,-7.4 14.55,-12.17 24.57,-12.17 17.01,0 30.81,13.75 30.87,30.74 v 145.74 z m 50.32,-49.94 v 7.76 c -9.56,-0.02 -18.92,2.66 -27.02,7.72 7.17,-7.85 16.62,-13.26 27.02,-15.48"
         style="fill:#47c1be;fill-opacity:1;fill-rule:evenodd;stroke:none"
         id="path314" /><path
         d="m 3235.13,2004.39 c -97.7,0 -176.9,-79.21 -176.9,-176.92 0,-71.96 43.04,-133.77 104.72,-161.4 -0.21,4.97 -0.42,9.94 -0.26,14.93 0.58,17.21 2.7,23.11 24.88,116.39 0.33,1.42 -0.03,2.6 -0.51,3.88 -5.3,14.33 -6.36,28.86 -1.72,43.6 10.04,31.8 46.1,34.24 52.41,7.99 3.88,-16.24 -6.39,-37.48 -14.28,-68.88 -6.53,-25.91 23.96,-44.33 50.03,-25.41 24.05,17.43 33.37,59.24 31.61,88.86 -3.5,59.08 -68.28,71.85 -109.38,52.83 -47.11,-21.79 -57.82,-80.2 -36.55,-106.88 2.7,-3.4 4.78,-5.47 3.89,-8.91 -1.37,-5.35 -2.58,-10.73 -4.06,-16.05 -1.1,-3.95 -4.41,-5.39 -8.4,-3.77 -7.85,3.17 -14.38,8.17 -19.68,14.75 -18.07,22.37 -23.23,66.61 0.66,104.07 26.46,41.5 75.67,58.28 120.62,53.19 53.67,-6.1 87.6,-42.77 93.96,-84.38 2.89,-18.96 0.8,-65.69 -25.8,-98.72 -30.61,-37.96 -80.22,-40.47 -103.12,-17.18 -1.76,1.79 -3.17,3.89 -4.9,6.02 -0.25,-0.86 -0.49,-1.59 -0.67,-2.31 -10.99,-43.06 -12.21,-52.62 -23.5,-72.62 -1.75,-3.06 -3.67,-6 -5.55,-8.97 16.59,-5.16 34.22,-7.93 52.5,-7.93 97.71,0 176.91,79.2 176.91,176.9 0,97.71 -79.2,176.92 -176.91,176.92"
         style="fill:#ef2f36;fill-opacity:1;fill-rule:nonzero;stroke:none"
         id="path316" /><path
         d="m 3211.68,1740.09 c 0.18,0.72 0.42,1.45 0.67,2.31 1.73,-2.13 3.14,-4.23 4.9,-6.02 22.9,-23.29 72.51,-20.78 103.12,17.18 26.6,33.03 28.69,79.76 25.8,98.72 -6.36,41.61 -40.29,78.28 -93.96,84.38 -44.95,5.09 -94.16,-11.69 -120.62,-53.19 -23.89,-37.46 -18.73,-81.7 -0.66,-104.07 5.3,-6.58 11.83,-11.58 19.68,-14.75 3.99,-1.62 7.3,-0.18 8.4,3.77 1.48,5.32 2.69,10.7 4.06,16.05 0.89,3.44 -1.19,5.51 -3.89,8.91 -21.27,26.68 -10.56,85.09 36.55,106.88 41.1,19.02 105.88,6.25 109.38,-52.83 1.76,-29.62 -7.56,-71.43 -31.61,-88.86 -26.07,-18.92 -56.56,-0.5 -50.03,25.41 7.89,31.4 18.16,52.64 14.28,68.88 -6.31,26.25 -42.37,23.81 -52.41,-7.99 -4.64,-14.74 -3.58,-29.27 1.72,-43.6 0.48,-1.28 0.84,-2.46 0.51,-3.88 -22.18,-93.28 -24.3,-99.18 -24.88,-116.39 -0.16,-4.99 0.05,-9.96 0.26,-14.93 6.39,-2.86 12.91,-5.47 19.68,-7.57 1.88,2.97 3.8,5.91 5.55,8.97 11.29,20 12.51,29.56 23.5,72.62"
         style="fill:#ffffff;fill-opacity:1;fill-rule:nonzero;stroke:none"
         id="path318" /><path
         d="m 3412.04,735.84 c 0,-97.699 -79.2,-176.91 -176.9,-176.91 -97.71,0 -176.91,79.211 -176.91,176.91 0,97.699 79.2,176.91 176.91,176.91 97.7,0 176.9,-79.211 176.9,-176.91"
         style="fill:#19ae5b;fill-opacity:1;fill-rule:nonzero;stroke:none"
         id="path320" /><path
         d="m 3197.62,671.172 3.48,-2.082 c 12.8,-7.61 27.34,-11.649 42.07,-11.649 45.44,0 82.41,36.969 82.41,82.418 0,45.442 -36.97,82.403 -82.41,82.403 -45.44,0 -82.4,-36.961 -82.4,-82.403 0,-15.007 4.17,-29.789 12.05,-42.738 l 2.13,-3.5 -8.23,-30.73 z m -58.07,-35.453 14.76,55.043 c -8.35,15.07 -12.75,31.957 -12.75,49.097 0,56.02 45.58,101.61 101.61,101.61 56.03,0 101.62,-45.59 101.62,-101.61 0,-56.039 -45.59,-101.629 -101.62,-101.629 -16.82,0 -33.43,4.25 -48.3,12.321 l -55.32,-14.832"
         style="fill:#ffffff;fill-opacity:1;fill-rule:nonzero;stroke:none"
         id="path322" /><path
         d="m 3280.97,725.719 c -4.18,2.5 -9.62,5.301 -14.55,3.281 -3.78,-1.551 -6.19,-7.461 -8.64,-10.488 -1.26,-1.543 -2.76,-1.793 -4.69,-1.02 -14.19,5.656 -25.06,15.129 -32.89,28.188 -1.33,2.019 -1.09,3.621 0.51,5.5 2.36,2.789 5.33,5.949 5.97,9.699 0.64,3.75 -1.11,8.152 -2.67,11.492 -1.98,4.258 -4.2,10.359 -8.47,12.77 -3.94,2.23 -9.12,0.98 -12.62,-1.879 -6.05,-4.922 -8.97,-12.633 -8.88,-20.282 0.03,-2.179 0.29,-4.339 0.8,-6.429 1.22,-5.051 3.55,-9.762 6.18,-14.242 1.98,-3.379 4.13,-6.649 6.44,-9.809 7.59,-10.309 17.04,-19.27 27.97,-25.961 5.46,-3.348 11.35,-6.277 17.44,-8.301 6.83,-2.25 12.92,-4.597 20.3,-3.207 7.73,1.481 15.34,6.25 18.41,13.699 0.9,2.2 1.36,4.661 0.85,6.989 -1.05,4.812 -7.56,7.672 -11.46,10"
         style="fill:#ffffff;fill-opacity:1;fill-rule:evenodd;stroke:none"
         id="path324" /><path
         d="m 3412.04,190.02 c 0,-97.6997 -79.2,-176.9106 -176.9,-176.9106 -97.71,0 -176.91,79.2109 -176.91,176.9106 0,97.71 79.2,176.91 176.91,176.91 97.7,0 176.9,-79.2 176.9,-176.91"
         style="fill:#ef2f36;fill-opacity:1;fill-rule:nonzero;stroke:none"
         id="path326" /><path
         d="m 3265.97,186.23 -48.72,-24.101 c -1.9,-1.027 -8.39,0.351 -8.39,2.523 v 49.469 c 0,2.199 6.54,3.578 8.45,2.488 l 46.62,-25.367 c 1.96,-1.113 4.01,-3.933 2.04,-5.012 z m 63.88,29.071 c 0,23.449 -19.02,42.48 -42.48,42.48 h -108.63 c -23.46,0 -42.48,-19.031 -42.48,-42.48 V 164.75 c 0,-23.469 19.02,-42.48 42.48,-42.48 h 108.63 c 23.46,0 42.48,19.011 42.48,42.48 v 50.551"
         style="fill:#ffffff;fill-opacity:1;fill-rule:nonzero;stroke:none"
         id="path328" /><g
         id="g330"><g
           id="g332"
           clip-path="url(#clipPath336)"><path
             d="m 2687.78,3033.46 c -11.45,0 -20.74,-9.29 -20.74,-20.74 0,-11.46 9.29,-20.75 20.74,-20.75 11.46,0 20.74,9.29 20.74,20.75 0,11.45 -9.28,20.74 -20.74,20.74"
             style="fill:url(#linearGradient352);fill-opacity:1;fill-rule:nonzero;stroke:none"
             id="path354" /></g></g><g
         id="g356"><g
           id="g358"
           clip-path="url(#clipPath362)"><path
             d="m 2595.57,2863.91 c -30.78,0 -55.82,25.04 -55.82,55.81 0,30.78 25.04,55.82 55.82,55.82 30.77,0 55.81,-25.04 55.81,-55.82 0,-30.77 -25.04,-55.81 -55.81,-55.81 z m 0,142.95 c -48.05,0 -87.14,-39.09 -87.14,-87.14 0,-48.04 39.09,-87.13 87.14,-87.13 48.04,0 87.13,39.09 87.13,87.13 0,48.05 -39.09,87.14 -87.13,87.14"
             style="fill:url(#linearGradient378);fill-opacity:1;fill-rule:nonzero;stroke:none"
             id="path380" /></g></g><g
         id="g382"><g
           id="g384"
           clip-path="url(#clipPath388)"><path
             d="m 2523.48,3063.34 c -40.25,0 -72.99,-32.74 -72.99,-72.99 v -141.26 c 0,-40.25 32.74,-72.99 72.99,-72.99 h 141.26 c 40.25,0 72.99,32.74 72.99,72.99 v 141.26 c 0,40.25 -32.74,72.99 -72.99,72.99 z m 141.26,-320.53 h -141.26 c -58.6,0 -106.27,47.68 -106.27,106.28 v 141.26 c 0,58.61 47.67,106.28 106.27,106.28 h 141.26 c 58.6,0 106.28,-47.67 106.28,-106.28 v -141.26 c 0,-58.6 -47.68,-106.28 -106.28,-106.28"
             style="fill:url(#linearGradient404);fill-opacity:1;fill-rule:nonzero;stroke:none"
             id="path406" /></g></g><path
         d="m 2676.44,3443.55 9.83,64.04 h -61.44 v 41.55 c 0,17.52 8.58,34.59 36.1,34.59 h 27.93 v 54.52 c 0,0 -25.35,4.32 -49.58,4.32 -50.6,0 -83.68,-30.66 -83.68,-86.18 v -48.8 h -56.24 v -64.04 h 56.24 v -154.79 h 69.23 v 154.79 h 51.61"
         style="fill:#3870c0;fill-opacity:1;fill-rule:nonzero;stroke:none"
         id="path408" /><path
         d="m 2807.28,2508.28 c -13.64,-6.18 -28.74,-9.92 -43.47,-12.39 6.99,1.17 17.26,13.83 21.37,18.95 6.28,7.8 11.5,16.7 14.43,26.31 0.38,0.75 0.66,1.69 -0.09,2.26 -0.95,0.37 -1.55,0.18 -2.3,-0.19 -16.44,-8.81 -33.45,-15.2 -51.55,-19.73 -1.5,-0.37 -2.61,0 -3.56,0.95 -1.5,1.69 -2.91,3.29 -4.5,4.6 -7.61,6.47 -15.77,11.55 -24.97,15.3 -12.08,4.92 -25.28,7.01 -38.3,6.17 -12.66,-0.83 -25.09,-4.39 -36.32,-10.26 -11.26,-5.88 -21.31,-14.07 -29.32,-23.94 -8.27,-10.22 -14.37,-22.27 -17.5,-35.06 -3.01,-12.34 -2.76,-24.54 -0.92,-37.01 0.28,-2.07 0.09,-2.35 -1.78,-2.07 -70.79,10.54 -129.47,35.86 -177.11,90.15 -2.07,2.36 -3.19,2.36 -4.89,-0.18 -20.85,-31.25 -10.73,-81.44 15.31,-106.11 3.48,-3.3 7.04,-6.58 10.89,-9.58 -1.41,-0.29 -18.73,1.58 -34.18,9.58 -2.07,1.31 -3.11,0.55 -3.29,-1.79 -0.19,-3.38 0.1,-6.49 0.56,-10.15 4,-31.67 25.94,-60.96 55.98,-72.4 3.57,-1.5 7.51,-2.81 11.35,-3.47 -6.84,-1.5 -13.89,-2.57 -33.52,-1.03 -2.44,0.46 -3.37,-0.76 -2.44,-3.11 14.75,-40.19 46.58,-52.16 70.43,-58.97 3.19,-0.56 6.38,-0.56 9.59,-1.31 -0.2,-0.29 -0.39,-0.29 -0.57,-0.57 -7.91,-12.05 -35.33,-21.02 -48.1,-25.48 -23.22,-8.12 -48.51,-11.77 -73.05,-9.35 -3.93,0.58 -4.75,0.53 -5.81,0 -1.08,-0.67 -0.14,-1.61 1.12,-2.63 4.98,-3.29 10.05,-6.2 15.22,-9.02 15.58,-8.26 31.83,-14.84 48.82,-19.53 87.76,-24.23 186.6,-6.42 252.49,59.04 51.74,51.41 69.88,122.31 69.88,193.29 0,2.78 3.28,4.31 5.23,5.78 13.46,10.11 24.32,22.22 34.36,35.73 2.25,3.04 2.28,5.74 2.28,6.85 0,0.19 0,0.37 0,0.37 0,1.14 -0.03,0.79 -1.77,0"
         style="fill:#2fbbe1;fill-opacity:1;fill-rule:nonzero;stroke:none"
         id="path410" /><path
         d="m 2571.69,1773.95 c -0.3,-1.02 -0.58,-1.87 -0.8,-2.73 -13,-50.91 -14.44,-62.22 -27.8,-85.88 -6.37,-11.23 -13.54,-21.88 -21.48,-32.08 -0.89,-1.15 -1.73,-2.63 -3.52,-2.27 -1.96,0.42 -2.11,2.18 -2.32,3.75 -2.14,15.47 -3.32,30.99 -2.81,46.6 0.68,20.35 3.2,27.33 29.43,137.65 0.38,1.68 -0.05,3.07 -0.61,4.6 -6.28,16.93 -7.52,34.12 -2.04,51.54 11.87,37.63 54.53,40.51 61.99,9.46 4.59,-19.2 -7.56,-44.32 -16.9,-81.46 -7.72,-30.65 28.35,-52.43 59.18,-30.06 28.44,20.62 39.47,70.07 37.37,105.11 -4.14,69.86 -80.74,84.96 -129.35,62.46 -55.71,-25.76 -68.38,-94.83 -43.22,-126.39 3.19,-4.02 5.65,-6.47 4.59,-10.55 -1.62,-6.31 -3.05,-12.68 -4.79,-18.97 -1.31,-4.67 -5.22,-6.38 -9.95,-4.45 -9.27,3.75 -17,9.65 -23.27,17.43 -21.36,26.45 -27.47,78.79 0.78,123.08 31.29,49.09 89.5,68.94 142.65,62.91 63.48,-7.21 103.61,-50.59 111.12,-99.79 3.42,-22.42 0.96,-77.69 -30.51,-116.76 -36.19,-44.89 -94.87,-47.86 -121.95,-20.31 -2.08,2.11 -3.76,4.59 -5.79,7.11"
         style="fill:#ef2f36;fill-opacity:1;fill-rule:evenodd;stroke:none"
         id="path412" /><path
         d="m 2517.5,620 5.99,-3.57 c 21.99,-13.098 47.01,-20.032 72.34,-20.032 78.15,0 141.72,63.571 141.72,141.723 0,78.141 -63.57,141.719 -141.72,141.719 -78.14,0 -141.72,-63.578 -141.72,-141.719 0,-25.801 7.17,-51.211 20.73,-73.48 l 3.67,-6.032 -14.16,-52.847 z m -99.86,-60.941 25.36,94.632 c -14.36,25.918 -21.92,54.95 -21.92,84.43 0,96.348 78.4,174.75 174.75,174.75 96.36,0 174.75,-78.402 174.75,-174.75 0,-96.359 -78.39,-174.762 -174.75,-174.762 -28.92,0 -57.49,7.313 -83.06,21.172 l -95.13,-25.472"
         style="fill:#19ae5b;fill-opacity:1;fill-rule:nonzero;stroke:none"
         id="path414" /><path
         d="m 2660.84,713.809 c -7.19,4.312 -16.55,9.113 -25.03,5.652 -6.49,-2.672 -10.65,-12.852 -14.86,-18.039 -2.16,-2.672 -4.74,-3.082 -8.06,-1.75 -24.4,9.726 -43.1,26.019 -56.57,48.457 -2.28,3.492 -1.87,6.242 0.88,9.473 4.07,4.789 9.18,10.23 10.28,16.687 1.1,6.449 -1.93,13.992 -4.6,19.75 -3.41,7.34 -7.22,17.813 -14.58,21.973 -6.76,3.82 -15.67,1.679 -21.69,-3.223 -10.4,-8.48 -15.42,-21.738 -15.27,-34.898 0.05,-3.743 0.5,-7.469 1.37,-11.071 2.1,-8.672 6.12,-16.781 10.63,-24.468 3.4,-5.813 7.1,-11.45 11.09,-16.872 13.05,-17.73 29.28,-33.14 48.09,-44.66 9.39,-5.75 19.51,-10.8 29.99,-14.261 11.75,-3.879 22.22,-7.918 34.91,-5.508 13.29,2.519 26.39,10.738 31.66,23.539 1.56,3.801 2.34,8.019 1.47,12.019 -1.81,8.282 -13.01,13.2 -19.71,17.2"
         style="fill:#19ae5b;fill-opacity:1;fill-rule:evenodd;stroke:none"
         id="path416" /><path
         d="m 2655.23,182.98 -90.46,-44.761 c -3.55,-1.91 -15.6,0.66 -15.6,4.691 v 91.871 c 0,4.078 12.15,6.649 15.7,4.629 l 86.59,-47.109 c 3.64,-2.071 7.45,-7.332 3.77,-9.321 z m 118.64,53.981 c 0,43.57 -35.32,78.891 -78.89,78.891 h -201.73 c -43.58,0 -78.9,-35.321 -78.9,-78.891 v -93.879 c 0,-43.582 35.32,-78.8906 78.9,-78.8906 h 201.73 c 43.57,0 78.89,35.3086 78.89,78.8906 v 93.879"
         style="fill:#ef2f36;fill-opacity:1;fill-rule:nonzero;stroke:none"
         id="path418" /><path
         d="m 2519.72,1178.62 c -6.81,8.91 -10.48,19.82 -10.46,31.03 0,28.31 22.96,51.26 51.29,51.26 5.27,0.01 10.52,-0.8 15.55,-2.4 v 61.98 c -5.88,0.81 -11.81,1.15 -17.74,1.03 v -48.25 c -5.04,1.6 -10.29,2.41 -15.57,2.41 -28.32,0 -51.29,-22.96 -51.29,-51.27 0,-20.01 11.48,-37.35 28.22,-45.79 z m 175.02,215.75 c -12.17,13.29 -20.17,30.47 -21.89,49.46 v 7.8 h -16.83 c 4.24,-24.14 18.68,-44.76 38.72,-57.26 z m -21.89,-61.17 c 23.82,-17.03 53.01,-27.04 84.53,-27.04 v 60.63 c -5.97,0 -11.92,0.61 -17.76,1.86 v -47.73 c -31.52,0 -60.7,10.02 -84.53,27.04 v -123.73 c 0,-61.88 -50.2,-112.06 -112.12,-112.06 -23.1,0 -44.58,6.98 -62.41,18.96 20.35,-20.81 48.75,-33.72 80.16,-33.72 61.93,0 112.13,50.17 112.13,112.07 v 123.72 0"
         style="fill:#ee2659;fill-opacity:1;fill-rule:evenodd;stroke:none"
         id="path420" /><path
         d="m 2655.09,1347.96 c 23.83,-17.02 53.01,-27.04 84.53,-27.04 v 47.73 c -17.59,3.74 -33.17,12.93 -44.88,25.72 -20.04,12.5 -34.48,33.12 -38.72,57.26 h -44.19 v -242.15 c -0.1,-28.23 -23.02,-51.09 -51.28,-51.09 -16.66,0 -31.46,7.94 -40.83,20.23 -16.74,8.44 -28.22,25.78 -28.22,45.79 0,28.31 22.96,51.27 51.29,51.27 5.43,0 10.66,-0.85 15.56,-2.41 v 48.25 c -60.83,-1.26 -109.75,-50.94 -109.75,-112.04 0,-30.5 12.18,-58.16 31.96,-78.35 17.83,-11.98 39.31,-18.96 62.41,-18.96 61.92,0 112.12,50.18 112.12,112.06 v 123.73"
         style="fill:#040606;fill-opacity:1;fill-rule:evenodd;stroke:none"
         id="path422" /><path
         d="m 2558.36,1321.52 v 13.74 c -5.1,0.69 -10.24,1.04 -15.39,1.03 -61.93,0 -112.12,-50.16 -112.12,-112.06 0,-38.8 19.72,-72.99 49.71,-93.1 -19.78,20.2 -31.96,47.85 -31.96,78.35 0,61.1 48.92,110.78 109.76,112.04 z m 97.66,130.11 c -0.4,2.31 -0.71,4.63 -0.93,6.97 v 7.79 h -61.01 v -242.16 c -0.1,-28.22 -23.02,-51.08 -51.29,-51.08 -8.3,0 -16.14,1.97 -23.07,5.47 9.37,-12.29 24.17,-20.23 40.83,-20.23 28.26,0 51.18,22.86 51.28,51.09 v 242.15 z m 83.6,-82.98 v 12.91 c -15.86,-0.03 -31.41,4.41 -44.88,12.81 11.92,-13.04 27.61,-22.03 44.88,-25.72"
         style="fill:#47c1be;fill-opacity:1;fill-rule:evenodd;stroke:none"
         id="path424" /><path
         d="M 3945.04,3654.95 V 13.1094"
         style="fill:none;stroke:#8b8e8e;stroke-width:10;stroke-linecap:butt;stroke-linejoin:miter;stroke-miterlimit:10;stroke-dasharray:none;stroke-opacity:1"
         id="path426" /><path
         d="M 2030.46,3654.95 V -0.0078125"
         style="fill:none;stroke:#8b8e8e;stroke-width:5;stroke-linecap:butt;stroke-linejoin:miter;stroke-miterlimit:10;stroke-dasharray:120, 120;stroke-dashoffset:0;stroke-opacity:1"
         id="path428" /><path
         d="M 6517.63,3654.95 V -0.0078125"
         style="fill:none;stroke:#8b8e8e;stroke-width:5;stroke-linecap:butt;stroke-linejoin:miter;stroke-miterlimit:10;stroke-dasharray:120, 120;stroke-dashoffset:0;stroke-opacity:1"
         id="path430" /><g
         id="g432"
         transform="scale(10)"><text
           transform="matrix(1,0,0,-1,123.363,402.914)"
           style="font-variant:normal;font-weight:bold;font-size:12px;font-family:Montserrat;-inkscape-font-specification:Montserrat-Bold;writing-mode:lr-tb;fill:#040606;fill-opacity:1;fill-rule:nonzero;stroke:none"
           id="text436"><tspan
             x="0 8.7358437 22.151844 37.079544 51.575642"
             y="0"
             sodipodi:role="line"
             id="tspan434">ICONS</tspan></text></g><g
         id="g438"
         transform="scale(10)"><text
           transform="matrix(1,0,0,-1,195.59129,402.914)"
           style="font-variant:normal;font-weight:bold;font-size:12px;font-family:Montserrat;-inkscape-font-specification:Montserrat-Bold;writing-mode:lr-tb;fill:#707476;fill-opacity:1;fill-rule:nonzero;stroke:none"
           id="text442"><tspan
             x="0 13.535592"
             y="0"
             sodipodi:role="line"
             id="tspan440">&amp; </tspan></text></g><g
         id="g444"
         transform="scale(10)"><text
           transform="matrix(1,0,0,-1,217.322,402.914)"
           style="font-variant:normal;font-weight:bold;font-size:12px;font-family:Montserrat;-inkscape-font-specification:Montserrat-Bold;writing-mode:lr-tb;fill:#040606;fill-opacity:1;fill-rule:nonzero;stroke:none"
           id="text448"><tspan
             x="0 12.456096 27.383783 40.98 49.715832 63.707542 75.755447 83.951256 100.21104 113.06313 127.77506 136.51089 150.50261 158.69841 170.60272 185.53041 199.5826 214.51036"
             y="0"
             sodipodi:role="line"
             id="tspan446">SOCIAL MEDIA LOGOS</tspan></text></g><g
         id="g450"
         transform="scale(10)"><text
           transform="matrix(1,0,0,-1,452.48481,402.914)"
           style="font-variant:normal;font-weight:bold;font-size:12px;font-family:Montserrat;-inkscape-font-specification:Montserrat-Bold;writing-mode:lr-tb;fill:#707476;fill-opacity:1;fill-rule:nonzero;stroke:none"
           id="text454"><tspan
             x="0 12.383772 27.312012 40.931568"
             y="0"
             sodipodi:role="line"
             id="tspan452">FOR </tspan></text></g><g
         id="g456"
         transform="scale(10)"><text
           transform="matrix(1,0,0,-1,501.612,402.914)"
           style="font-variant:normal;font-weight:bold;font-size:12px;font-family:Montserrat;-inkscape-font-specification:Montserrat-Bold;writing-mode:lr-tb;fill:#040606;fill-opacity:1;fill-rule:nonzero;stroke:none"
           id="text460"><tspan
             x="0 13.98054 28.236397 40.691521 49.427868 63.923965 76.775566 89.231667 101.68776 109.88308 123.31076 137.30296 150.92305"
             y="0"
             sodipodi:role="line"
             id="tspan458">BUSINESS CARD</tspan></text></g></g></g></svg>
